0
SECTION
2
TABLES
0
TABLE
2
LAYER
70
4
0
LAYER
2
LINKAGE
70
0
62
1
6
CONTINUOUS
0
LAYER
2
PINS
70
0
62
2
6
CONTINUOUS
0
LAYER
2
GROUND
70
0
62
3
6
CONTINUOUS
0
LAYER
2
FOOTPATH
70
0
62
4
6
CONTINUOUS
0
ENDTAB
0
ENDSEC
0
SECTION
2
ENTITIES
0
LINE
8
LINKAGE
10
0.000000
20
0.000000
30
0.0
11
15.000000
21
0.000000
31
0.0
0
LINE
8
LINKAGE
10
15.000000
20
0.000000
30
0.0
11
-24.013535
21
31.272097
31
0.0
0
LINE
8
LINKAGE
10
-38.000000
20
-7.800000
30
0.0
11
-24.013535
21
31.272097
31
0.0
0
LINE
8
LINKAGE
10
-24.013535
20
31.272097
30
0.0
11
-74.794365
21
8.143170
31
0.0
0
LINE
8
LINKAGE
10
-38.000000
20
-7.800000
30
0.0
11
-74.794365
21
8.143170
31
0.0
0
LINE
8
LINKAGE
10
15.000000
20
0.000000
30
0.0
11
-26.952107
21
-45.515170
31
0.0
0
LINE
8
LINKAGE
10
-38.000000
20
-7.800000
30
0.0
11
-26.952107
21
-45.515170
31
0.0
0
LINE
8
LINKAGE
10
-74.794365
20
8.143170
30
0.0
11
-59.231515
21
-28.052930
31
0.0
0
LINE
8
LINKAGE
10
-26.952107
20
-45.515170
30
0.0
11
-59.231515
21
-28.052930
31
0.0
0
LINE
8
LINKAGE
10
-26.952107
20
-45.515170
30
0.0
11
-43.160111
21
-91.756933
31
0.0
0
LINE
8
LINKAGE
10
-59.231515
20
-28.052930
30
0.0
11
-43.160111
21
-91.756933
31
0.0
0
CIRCLE
8
PINS
10
0.000000
20
0.000000
30
0.0
40
4.000000
0
CIRCLE
8
PINS
10
-38.000000
20
-7.800000
30
0.0
40
4.000000
0
CIRCLE
8
PINS
10
15.000000
20
0.000000
30
0.0
40
4.000000
0
CIRCLE
8
PINS
10
-24.013535
20
31.272097
30
0.0
40
4.000000
0
CIRCLE
8
PINS
10
-74.794365
20
8.143170
30
0.0
40
4.000000
0
CIRCLE
8
PINS
10
-26.952107
20
-45.515170
30
0.0
40
4.000000
0
CIRCLE
8
PINS
10
-59.231515
20
-28.052930
30
0.0
40
4.000000
0
CIRCLE
8
PINS
10
-43.160111
20
-91.756933
30
0.0
40
4.000000
0
CIRCLE
8
GROUND
10
0.000000
20
0.000000
30
0.0
40
7.200000
0
CIRCLE
8
GROUND
10
-38.000000
20
-7.800000
30
0.0
40
7.200000
0
LINE
8
FOOTPATH
10
-43.160111
20
-91.756933
30
0.0
11
-42.765804
21
-91.756373
31
0.0
0
LINE
8
FOOTPATH
10
-42.765804
20
-91.756373
30
0.0
11
-42.370180
21
-91.756109
31
0.0
0
LINE
8
FOOTPATH
10
-42.370180
20
-91.756109
30
0.0
11
-41.973240
21
-91.756143
31
0.0
0
LINE
8
FOOTPATH
10
-41.973240
20
-91.756143
30
0.0
11
-41.574984
21
-91.756474
31
0.0
0
LINE
8
FOOTPATH
10
-41.574984
20
-91.756474
30
0.0
11
-41.175417
21
-91.757098
31
0.0
0
LINE
8
FOOTPATH
10
-41.175417
20
-91.757098
30
0.0
11
-40.774543
21
-91.758012
31
0.0
0
LINE
8
FOOTPATH
10
-40.774543
20
-91.758012
30
0.0
11
-40.372367
21
-91.759208
31
0.0
0
LINE
8
FOOTPATH
10
-40.372367
20
-91.759208
30
0.0
11
-39.968896
21
-91.760678
31
0.0
0
LINE
8
FOOTPATH
10
-39.968896
20
-91.760678
30
0.0
11
-39.564140
21
-91.762411
31
0.0
0
LINE
8
FOOTPATH
10
-39.564140
20
-91.762411
30
0.0
11
-39.158111
21
-91.764396
31
0.0
0
LINE
8
FOOTPATH
10
-39.158111
20
-91.764396
30
0.0
11
-38.750820
21
-91.766616
31
0.0
0
LINE
8
FOOTPATH
10
-38.750820
20
-91.766616
30
0.0
11
-38.342283
21
-91.769057
31
0.0
0
LINE
8
FOOTPATH
10
-38.342283
20
-91.769057
30
0.0
11
-37.932518
21
-91.771701
31
0.0
0
LINE
8
FOOTPATH
10
-37.932518
20
-91.771701
30
0.0
11
-37.521542
21
-91.774526
31
0.0
0
LINE
8
FOOTPATH
10
-37.521542
20
-91.774526
30
0.0
11
-37.109378
21
-91.777513
31
0.0
0
LINE
8
FOOTPATH
10
-37.109378
20
-91.777513
30
0.0
11
-36.696050
21
-91.780638
31
0.0
0
LINE
8
FOOTPATH
10
-36.696050
20
-91.780638
30
0.0
11
-36.281584
21
-91.783877
31
0.0
0
LINE
8
FOOTPATH
10
-36.281584
20
-91.783877
30
0.0
11
-35.866007
21
-91.787203
31
0.0
0
LINE
8
FOOTPATH
10
-35.866007
20
-91.787203
30
0.0
11
-35.449353
21
-91.790590
31
0.0
0
LINE
8
FOOTPATH
10
-35.449353
20
-91.790590
30
0.0
11
-35.031653
21
-91.794008
31
0.0
0
LINE
8
FOOTPATH
10
-35.031653
20
-91.794008
30
0.0
11
-34.612944
21
-91.797428
31
0.0
0
LINE
8
FOOTPATH
10
-34.612944
20
-91.797428
30
0.0
11
-34.193264
21
-91.800818
31
0.0
0
LINE
8
FOOTPATH
10
-34.193264
20
-91.800818
30
0.0
11
-33.772655
21
-91.804148
31
0.0
0
LINE
8
FOOTPATH
10
-33.772655
20
-91.804148
30
0.0
11
-33.351160
21
-91.807384
31
0.0
0
LINE
8
FOOTPATH
10
-33.351160
20
-91.807384
30
0.0
11
-32.928826
21
-91.810491
31
0.0
0
LINE
8
FOOTPATH
10
-32.928826
20
-91.810491
30
0.0
11
-32.505700
21
-91.813437
31
0.0
0
LINE
8
FOOTPATH
10
-32.505700
20
-91.813437
30
0.0
11
-32.081835
21
-91.816186
31
0.0
0
LINE
8
FOOTPATH
10
-32.081835
20
-91.816186
30
0.0
11
-31.657284
21
-91.818702
31
0.0
0
LINE
8
FOOTPATH
10
-31.657284
20
-91.818702
30
0.0
11
-31.232102
21
-91.820949
31
0.0
0
LINE
8
FOOTPATH
10
-31.232102
20
-91.820949
30
0.0
11
-30.806350
21
-91.822891
31
0.0
0
LINE
8
FOOTPATH
10
-30.806350
20
-91.822891
30
0.0
11
-30.380087
21
-91.824491
31
0.0
0
LINE
8
FOOTPATH
10
-30.380087
20
-91.824491
30
0.0
11
-29.953377
21
-91.825714
31
0.0
0
LINE
8
FOOTPATH
10
-29.953377
20
-91.825714
30
0.0
11
-29.526286
21
-91.826522
31
0.0
0
LINE
8
FOOTPATH
10
-29.526286
20
-91.826522
30
0.0
11
-29.098883
21
-91.826878
31
0.0
0
LINE
8
FOOTPATH
10
-29.098883
20
-91.826878
30
0.0
11
-28.671237
21
-91.826747
31
0.0
0
LINE
8
FOOTPATH
10
-28.671237
20
-91.826747
30
0.0
11
-28.243422
21
-91.826092
31
0.0
0
LINE
8
FOOTPATH
10
-28.243422
20
-91.826092
30
0.0
11
-27.815512
21
-91.824878
31
0.0
0
LINE
8
FOOTPATH
10
-27.815512
20
-91.824878
30
0.0
11
-27.387584
21
-91.823068
31
0.0
0
LINE
8
FOOTPATH
10
-27.387584
20
-91.823068
30
0.0
11
-26.959718
21
-91.820629
31
0.0
0
LINE
8
FOOTPATH
10
-26.959718
20
-91.820629
30
0.0
11
-26.531995
21
-91.817526
31
0.0
0
LINE
8
FOOTPATH
10
-26.531995
20
-91.817526
30
0.0
11
-26.104499
21
-91.813726
31
0.0
0
LINE
8
FOOTPATH
10
-26.104499
20
-91.813726
30
0.0
11
-25.677314
21
-91.809195
31
0.0
0
LINE
8
FOOTPATH
10
-25.677314
20
-91.809195
30
0.0
11
-25.250529
21
-91.803901
31
0.0
0
LINE
8
FOOTPATH
10
-25.250529
20
-91.803901
30
0.0
11
-24.824233
21
-91.797814
31
0.0
0
LINE
8
FOOTPATH
10
-24.824233
20
-91.797814
30
0.0
11
-24.398517
21
-91.790904
31
0.0
0
LINE
8
FOOTPATH
10
-24.398517
20
-91.790904
30
0.0
11
-23.973475
21
-91.783140
31
0.0
0
LINE
8
FOOTPATH
10
-23.973475
20
-91.783140
30
0.0
11
-23.549201
21
-91.774496
31
0.0
0
LINE
8
FOOTPATH
10
-23.549201
20
-91.774496
30
0.0
11
-23.125794
21
-91.764943
31
0.0
0
LINE
8
FOOTPATH
10
-23.125794
20
-91.764943
30
0.0
11
-22.703351
21
-91.754456
31
0.0
0
LINE
8
FOOTPATH
10
-22.703351
20
-91.754456
30
0.0
11
-22.281974
21
-91.743011
31
0.0
0
LINE
8
FOOTPATH
10
-22.281974
20
-91.743011
30
0.0
11
-21.861766
21
-91.730583
31
0.0
0
LINE
8
FOOTPATH
10
-21.861766
20
-91.730583
30
0.0
11
-21.442830
21
-91.717151
31
0.0
0
LINE
8
FOOTPATH
10
-21.442830
20
-91.717151
30
0.0
11
-21.025273
21
-91.702694
31
0.0
0
LINE
8
FOOTPATH
10
-21.025273
20
-91.702694
30
0.0
11
-20.609204
21
-91.687192
31
0.0
0
LINE
8
FOOTPATH
10
-20.609204
20
-91.687192
30
0.0
11
-20.194731
21
-91.670627
31
0.0
0
LINE
8
FOOTPATH
10
-20.194731
20
-91.670627
30
0.0
11
-19.781967
21
-91.652983
31
0.0
0
LINE
8
FOOTPATH
10
-19.781967
20
-91.652983
30
0.0
11
-19.371025
21
-91.634243
31
0.0
0
LINE
8
FOOTPATH
10
-19.371025
20
-91.634243
30
0.0
11
-18.962021
21
-91.614395
31
0.0
0
LINE
8
FOOTPATH
10
-18.962021
20
-91.614395
30
0.0
11
-18.555071
21
-91.593426
31
0.0
0
LINE
8
FOOTPATH
10
-18.555071
20
-91.593426
30
0.0
11
-18.150295
21
-91.571325
31
0.0
0
LINE
8
FOOTPATH
10
-18.150295
20
-91.571325
30
0.0
11
-17.747812
21
-91.548082
31
0.0
0
LINE
8
FOOTPATH
10
-17.747812
20
-91.548082
30
0.0
11
-17.347747
21
-91.523690
31
0.0
0
LINE
8
FOOTPATH
10
-17.347747
20
-91.523690
30
0.0
11
-16.950223
21
-91.498143
31
0.0
0
LINE
8
FOOTPATH
10
-16.950223
20
-91.498143
30
0.0
11
-16.555366
21
-91.471436
31
0.0
0
LINE
8
FOOTPATH
10
-16.555366
20
-91.471436
30
0.0
11
-16.163306
21
-91.443564
31
0.0
0
LINE
8
FOOTPATH
10
-16.163306
20
-91.443564
30
0.0
11
-15.774172
21
-91.414528
31
0.0
0
LINE
8
FOOTPATH
10
-15.774172
20
-91.414528
30
0.0
11
-15.388096
21
-91.384326
31
0.0
0
LINE
8
FOOTPATH
10
-15.388096
20
-91.384326
30
0.0
11
-15.005214
21
-91.352960
31
0.0
0
LINE
8
FOOTPATH
10
-15.005214
20
-91.352960
30
0.0
11
-14.625660
21
-91.320432
31
0.0
0
LINE
8
FOOTPATH
10
-14.625660
20
-91.320432
30
0.0
11
-14.249574
21
-91.286748
31
0.0
0
LINE
8
FOOTPATH
10
-14.249574
20
-91.286748
30
0.0
11
-13.877096
21
-91.251912
31
0.0
0
LINE
8
FOOTPATH
10
-13.877096
20
-91.251912
30
0.0
11
-13.508368
21
-91.215933
31
0.0
0
LINE
8
FOOTPATH
10
-13.508368
20
-91.215933
30
0.0
11
-13.143535
21
-91.178819
31
0.0
0
LINE
8
FOOTPATH
10
-13.143535
20
-91.178819
30
0.0
11
-12.782745
21
-91.140581
31
0.0
0
LINE
8
FOOTPATH
10
-12.782745
20
-91.140581
30
0.0
11
-12.426146
21
-91.101230
31
0.0
0
LINE
8
FOOTPATH
10
-12.426146
20
-91.101230
30
0.0
11
-12.073890
21
-91.060779
31
0.0
0
LINE
8
FOOTPATH
10
-12.073890
20
-91.060779
30
0.0
11
-11.726131
21
-91.019244
31
0.0
0
LINE
8
FOOTPATH
10
-11.726131
20
-91.019244
30
0.0
11
-11.383025
21
-90.976638
31
0.0
0
LINE
8
FOOTPATH
10
-11.383025
20
-90.976638
30
0.0
11
-11.044730
21
-90.932981
31
0.0
0
LINE
8
FOOTPATH
10
-11.044730
20
-90.932981
30
0.0
11
-10.711409
21
-90.888290
31
0.0
0
LINE
8
FOOTPATH
10
-10.711409
20
-90.888290
30
0.0
11
-10.383225
21
-90.842585
31
0.0
0
LINE
8
FOOTPATH
10
-10.383225
20
-90.842585
30
0.0
11
-10.060344
21
-90.795886
31
0.0
0
LINE
8
FOOTPATH
10
-10.060344
20
-90.795886
30
0.0
11
-9.742935
21
-90.748216
31
0.0
0
LINE
8
FOOTPATH
10
-9.742935
20
-90.748216
30
0.0
11
-9.431170
21
-90.699597
31
0.0
0
LINE
8
FOOTPATH
10
-9.431170
20
-90.699597
30
0.0
11
-9.125223
21
-90.650053
31
0.0
0
LINE
8
FOOTPATH
10
-9.125223
20
-90.650053
30
0.0
11
-8.825272
21
-90.599609
31
0.0
0
LINE
8
FOOTPATH
10
-8.825272
20
-90.599609
30
0.0
11
-8.531496
21
-90.548290
31
0.0
0
LINE
8
FOOTPATH
10
-8.531496
20
-90.548290
30
0.0
11
-8.244078
21
-90.496123
31
0.0
0
LINE
8
FOOTPATH
10
-8.244078
20
-90.496123
30
0.0
11
-7.963206
21
-90.443134
31
0.0
0
LINE
8
FOOTPATH
10
-7.963206
20
-90.443134
30
0.0
11
-7.689066
21
-90.389351
31
0.0
0
LINE
8
FOOTPATH
10
-7.689066
20
-90.389351
30
0.0
11
-7.421852
21
-90.334803
31
0.0
0
LINE
8
FOOTPATH
10
-7.421852
20
-90.334803
30
0.0
11
-7.161759
21
-90.279516
31
0.0
0
LINE
8
FOOTPATH
10
-7.161759
20
-90.279516
30
0.0
11
-6.908985
21
-90.223520
31
0.0
0
LINE
8
FOOTPATH
10
-6.908985
20
-90.223520
30
0.0
11
-6.663731
21
-90.166842
31
0.0
0
LINE
8
FOOTPATH
10
-6.663731
20
-90.166842
30
0.0
11
-6.426203
21
-90.109512
31
0.0
0
LINE
8
FOOTPATH
10
-6.426203
20
-90.109512
30
0.0
11
-6.196609
21
-90.051558
31
0.0
0
LINE
8
FOOTPATH
10
-6.196609
20
-90.051558
30
0.0
11
-5.975159
21
-89.993006
31
0.0
0
LINE
8
FOOTPATH
10
-5.975159
20
-89.993006
30
0.0
11
-5.762070
21
-89.933885
31
0.0
0
LINE
8
FOOTPATH
10
-5.762070
20
-89.933885
30
0.0
11
-5.557559
21
-89.874222
31
0.0
0
LINE
8
FOOTPATH
10
-5.557559
20
-89.874222
30
0.0
11
-5.361849
21
-89.814040
31
0.0
0
LINE
8
FOOTPATH
10
-5.361849
20
-89.814040
30
0.0
11
-5.175164
21
-89.753365
31
0.0
0
LINE
8
FOOTPATH
10
-5.175164
20
-89.753365
30
0.0
11
-4.997734
21
-89.692221
31
0.0
0
LINE
8
FOOTPATH
10
-4.997734
20
-89.692221
30
0.0
11
-4.829792
21
-89.630627
31
0.0
0
LINE
8
FOOTPATH
10
-4.829792
20
-89.630627
30
0.0
11
-4.671572
21
-89.568605
31
0.0
0
LINE
8
FOOTPATH
10
-4.671572
20
-89.568605
30
0.0
11
-4.523316
21
-89.506170
31
0.0
0
LINE
8
FOOTPATH
10
-4.523316
20
-89.506170
30
0.0
11
-4.385265
21
-89.443340
31
0.0
0
LINE
8
FOOTPATH
10
-4.385265
20
-89.443340
30
0.0
11
-4.257667
21
-89.380125
31
0.0
0
LINE
8
FOOTPATH
10
-4.257667
20
-89.380125
30
0.0
11
-4.140773
21
-89.316535
31
0.0
0
LINE
8
FOOTPATH
10
-4.140773
20
-89.316535
30
0.0
11
-4.034835
21
-89.252576
31
0.0
0
LINE
8
FOOTPATH
10
-4.034835
20
-89.252576
30
0.0
11
-3.940110
21
-89.188251
31
0.0
0
LINE
8
FOOTPATH
10
-3.940110
20
-89.188251
30
0.0
11
-3.856860
21
-89.123558
31
0.0
0
LINE
8
FOOTPATH
10
-3.856860
20
-89.123558
30
0.0
11
-3.785348
21
-89.058491
31
0.0
0
LINE
8
FOOTPATH
10
-3.785348
20
-89.058491
30
0.0
11
-3.725841
21
-88.993039
31
0.0
0
LINE
8
FOOTPATH
10
-3.725841
20
-88.993039
30
0.0
11
-3.678609
21
-88.927185
31
0.0
0
LINE
8
FOOTPATH
10
-3.678609
20
-88.927185
30
0.0
11
-3.643923
21
-88.860909
31
0.0
0
LINE
8
FOOTPATH
10
-3.643923
20
-88.860909
30
0.0
11
-3.622061
21
-88.794181
31
0.0
0
LINE
8
FOOTPATH
10
-3.622061
20
-88.794181
30
0.0
11
-3.613298
21
-88.726966
31
0.0
0
LINE
8
FOOTPATH
10
-3.613298
20
-88.726966
30
0.0
11
-3.617916
21
-88.659224
31
0.0
0
LINE
8
FOOTPATH
10
-3.617916
20
-88.659224
30
0.0
11
-3.636196
21
-88.590904
31
0.0
0
LINE
8
FOOTPATH
10
-3.636196
20
-88.590904
30
0.0
11
-3.668422
21
-88.521949
31
0.0
0
LINE
8
FOOTPATH
10
-3.668422
20
-88.521949
30
0.0
11
-3.714878
21
-88.452290
31
0.0
0
LINE
8
FOOTPATH
10
-3.714878
20
-88.452290
30
0.0
11
-3.775849
21
-88.381853
31
0.0
0
LINE
8
FOOTPATH
10
-3.775849
20
-88.381853
30
0.0
11
-3.851623
21
-88.310551
31
0.0
0
LINE
8
FOOTPATH
10
-3.851623
20
-88.310551
30
0.0
11
-3.942483
21
-88.238286
31
0.0
0
LINE
8
FOOTPATH
10
-3.942483
20
-88.238286
30
0.0
11
-4.048714
21
-88.164951
31
0.0
0
LINE
8
FOOTPATH
10
-4.048714
20
-88.164951
30
0.0
11
-4.170601
21
-88.090424
31
0.0
0
LINE
8
FOOTPATH
10
-4.170601
20
-88.090424
30
0.0
11
-4.308425
21
-88.014572
31
0.0
0
LINE
8
FOOTPATH
10
-4.308425
20
-88.014572
30
0.0
11
-4.462462
21
-87.937250
31
0.0
0
LINE
8
FOOTPATH
10
-4.462462
20
-87.937250
30
0.0
11
-4.632989
21
-87.858295
31
0.0
0
LINE
8
FOOTPATH
10
-4.632989
20
-87.858295
30
0.0
11
-4.820275
21
-87.777533
31
0.0
0
LINE
8
FOOTPATH
10
-4.820275
20
-87.777533
30
0.0
11
-5.024583
21
-87.694771
31
0.0
0
LINE
8
FOOTPATH
10
-5.024583
20
-87.694771
30
0.0
11
-5.246171
21
-87.609804
31
0.0
0
LINE
8
FOOTPATH
10
-5.246171
20
-87.609804
30
0.0
11
-5.485286
21
-87.522405
31
0.0
0
LINE
8
FOOTPATH
10
-5.485286
20
-87.522405
30
0.0
11
-5.742168
21
-87.432333
31
0.0
0
LINE
8
FOOTPATH
10
-5.742168
20
-87.432333
30
0.0
11
-6.017044
21
-87.339327
31
0.0
0
LINE
8
FOOTPATH
10
-6.017044
20
-87.339327
30
0.0
11
-6.310129
21
-87.243108
31
0.0
0
LINE
8
FOOTPATH
10
-6.310129
20
-87.243108
30
0.0
11
-6.621623
21
-87.143377
31
0.0
0
LINE
8
FOOTPATH
10
-6.621623
20
-87.143377
30
0.0
11
-6.951710
21
-87.039814
31
0.0
0
LINE
8
FOOTPATH
10
-6.951710
20
-87.039814
30
0.0
11
-7.300556
21
-86.932081
31
0.0
0
LINE
8
FOOTPATH
10
-7.300556
20
-86.932081
30
0.0
11
-7.668304
21
-86.819815
31
0.0
0
LINE
8
FOOTPATH
10
-7.668304
20
-86.819815
30
0.0
11
-8.055076
21
-86.702636
31
0.0
0
LINE
8
FOOTPATH
10
-8.055076
20
-86.702636
30
0.0
11
-8.460967
21
-86.580140
31
0.0
0
LINE
8
FOOTPATH
10
-8.460967
20
-86.580140
30
0.0
11
-8.886045
21
-86.451901
31
0.0
0
LINE
8
FOOTPATH
10
-8.886045
20
-86.451901
30
0.0
11
-9.330344
21
-86.317474
31
0.0
0
LINE
8
FOOTPATH
10
-9.330344
20
-86.317474
30
0.0
11
-9.793868
21
-86.176391
31
0.0
0
LINE
8
FOOTPATH
10
-9.793868
20
-86.176391
30
0.0
11
-10.276579
21
-86.028163
31
0.0
0
LINE
8
FOOTPATH
10
-10.276579
20
-86.028163
30
0.0
11
-10.778400
21
-85.872282
31
0.0
0
LINE
8
FOOTPATH
10
-10.778400
20
-85.872282
30
0.0
11
-11.299211
21
-85.708221
31
0.0
0
LINE
8
FOOTPATH
10
-11.299211
20
-85.708221
30
0.0
11
-11.838840
21
-85.535432
31
0.0
0
LINE
8
FOOTPATH
10
-11.838840
20
-85.535432
30
0.0
11
-12.397067
21
-85.353356
31
0.0
0
LINE
8
FOOTPATH
10
-12.397067
20
-85.353356
30
0.0
11
-12.973613
21
-85.161414
31
0.0
0
LINE
8
FOOTPATH
10
-12.973613
20
-85.161414
30
0.0
11
-13.568141
21
-84.959018
31
0.0
0
LINE
8
FOOTPATH
10
-13.568141
20
-84.959018
30
0.0
11
-14.180248
21
-84.745568
31
0.0
0
LINE
8
FOOTPATH
10
-14.180248
20
-84.745568
30
0.0
11
-14.809465
21
-84.520461
31
0.0
0
LINE
8
FOOTPATH
10
-14.809465
20
-84.520461
30
0.0
11
-15.455248
21
-84.283089
31
0.0
0
LINE
8
FOOTPATH
10
-15.455248
20
-84.283089
30
0.0
11
-16.116977
21
-84.032845
31
0.0
0
LINE
8
FOOTPATH
10
-16.116977
20
-84.032845
30
0.0
11
-16.793954
21
-83.769129
31
0.0
0
LINE
8
FOOTPATH
10
-16.793954
20
-83.769129
30
0.0
11
-17.485394
21
-83.491356
31
0.0
0
LINE
8
FOOTPATH
10
-17.485394
20
-83.491356
30
0.0
11
-18.190424
21
-83.198957
31
0.0
0
LINE
8
FOOTPATH
10
-18.190424
20
-83.198957
30
0.0
11
-18.908083
21
-82.891391
31
0.0
0
LINE
8
FOOTPATH
10
-18.908083
20
-82.891391
30
0.0
11
-19.637316
21
-82.568149
31
0.0
0
LINE
8
FOOTPATH
10
-19.637316
20
-82.568149
30
0.0
11
-20.376971
21
-82.228771
31
0.0
0
LINE
8
FOOTPATH
10
-20.376971
20
-82.228771
30
0.0
11
-21.125803
21
-81.872847
31
0.0
0
LINE
8
FOOTPATH
10
-21.125803
20
-81.872847
30
0.0
11
-21.882472
21
-81.500038
31
0.0
0
LINE
8
FOOTPATH
10
-21.882472
20
-81.500038
30
0.0
11
-22.645543
21
-81.110083
31
0.0
0
LINE
8
FOOTPATH
10
-22.645543
20
-81.110083
30
0.0
11
-23.413492
21
-80.702818
31
0.0
0
LINE
8
FOOTPATH
10
-23.413492
20
-80.702818
30
0.0
11
-24.184712
21
-80.278193
31
0.0
0
LINE
8
FOOTPATH
10
-24.184712
20
-80.278193
30
0.0
11
-24.957521
21
-79.836289
31
0.0
0
LINE
8
FOOTPATH
10
-24.957521
20
-79.836289
30
0.0
11
-25.730171
21
-79.377344
31
0.0
0
LINE
8
FOOTPATH
10
-25.730171
20
-79.377344
30
0.0
11
-26.500868
21
-78.901772
31
0.0
0
LINE
8
FOOTPATH
10
-26.500868
20
-78.901772
30
0.0
11
-27.267789
21
-78.410198
31
0.0
0
LINE
8
FOOTPATH
10
-27.267789
20
-78.410198
30
0.0
11
-28.029108
21
-77.903482
31
0.0
0
LINE
8
FOOTPATH
10
-28.029108
20
-77.903482
30
0.0
11
-28.783029
21
-77.382757
31
0.0
0
LINE
8
FOOTPATH
10
-28.783029
20
-77.382757
30
0.0
11
-29.527820
21
-76.849469
31
0.0
0
LINE
8
FOOTPATH
10
-29.527820
20
-76.849469
30
0.0
11
-30.261866
21
-76.305416
31
0.0
0
LINE
8
FOOTPATH
10
-30.261866
20
-76.305416
30
0.0
11
-30.983716
21
-75.752795
31
0.0
0
LINE
8
FOOTPATH
10
-30.983716
20
-75.752795
30
0.0
11
-31.692151
21
-75.194246
31
0.0
0
LINE
8
FOOTPATH
10
-31.692151
20
-75.194246
30
0.0
11
-32.386250
21
-74.632905
31
0.0
0
LINE
8
FOOTPATH
10
-32.386250
20
-74.632905
30
0.0
11
-33.065472
21
-74.072441
31
0.0
0
LINE
8
FOOTPATH
10
-33.065472
20
-74.072441
30
0.0
11
-33.729730
21
-73.517097
31
0.0
0
LINE
8
FOOTPATH
10
-33.729730
20
-73.517097
30
0.0
11
-34.379469
21
-72.971710
31
0.0
0
LINE
8
FOOTPATH
10
-34.379469
20
-72.971710
30
0.0
11
-35.015739
21
-72.441706
31
0.0
0
LINE
8
FOOTPATH
10
-35.015739
20
-72.441706
30
0.0
11
-35.640243
21
-71.933071
31
0.0
0
LINE
8
FOOTPATH
10
-35.640243
20
-71.933071
30
0.0
11
-36.255361
21
-71.452261
31
0.0
0
LINE
8
FOOTPATH
10
-36.255361
20
-71.452261
30
0.0
11
-36.864129
21
-71.006076
31
0.0
0
LINE
8
FOOTPATH
10
-36.864129
20
-71.006076
30
0.0
11
-37.470168
21
-70.601448
31
0.0
0
LINE
8
FOOTPATH
10
-37.470168
20
-70.601448
30
0.0
11
-38.077557
21
-70.245187
31
0.0
0
LINE
8
FOOTPATH
10
-38.077557
20
-70.245187
30
0.0
11
-38.690642
21
-69.943651
31
0.0
0
LINE
8
FOOTPATH
10
-38.690642
20
-69.943651
30
0.0
11
-39.313787
21
-69.702403
31
0.0
0
LINE
8
FOOTPATH
10
-39.313787
20
-69.702403
30
0.0
11
-39.951102
21
-69.525849
31
0.0
0
LINE
8
FOOTPATH
10
-39.951102
20
-69.525849
30
0.0
11
-40.606156
21
-69.416938
31
0.0
0
LINE
8
FOOTPATH
10
-40.606156
20
-69.416938
30
0.0
11
-41.281719
21
-69.376939
31
0.0
0
LINE
8
FOOTPATH
10
-41.281719
20
-69.376939
30
0.0
11
-41.979564
21
-69.405346
31
0.0
0
LINE
8
FOOTPATH
10
-41.979564
20
-69.405346
30
0.0
11
-42.700359
21
-69.499924
31
0.0
0
LINE
8
FOOTPATH
10
-42.700359
20
-69.499924
30
0.0
11
-43.443652
21
-69.656893
31
0.0
0
LINE
8
FOOTPATH
10
-43.443652
20
-69.656893
30
0.0
11
-44.207958
21
-69.871218
31
0.0
0
LINE
8
FOOTPATH
10
-44.207958
20
-69.871218
30
0.0
11
-44.990922
21
-70.136968
31
0.0
0
LINE
8
FOOTPATH
10
-44.990922
20
-70.136968
30
0.0
11
-45.789530
21
-70.447691
31
0.0
0
LINE
8
FOOTPATH
10
-45.789530
20
-70.447691
30
0.0
11
-46.600344
21
-70.796770
31
0.0
0
LINE
8
FOOTPATH
10
-46.600344
20
-70.796770
30
0.0
11
-47.419727
21
-71.177717
31
0.0
0
LINE
8
FOOTPATH
10
-47.419727
20
-71.177717
30
0.0
11
-48.244041
21
-71.584401
31
0.0
0
LINE
8
FOOTPATH
10
-48.244041
20
-71.584401
30
0.0
11
-49.069795
21
-72.011198
31
0.0
0
LINE
8
FOOTPATH
10
-49.069795
20
-72.011198
30
0.0
11
-49.893761
21
-72.453075
31
0.0
0
LINE
8
FOOTPATH
10
-49.893761
20
-72.453075
30
0.0
11
-50.713038
21
-72.905621
31
0.0
0
LINE
8
FOOTPATH
10
-50.713038
20
-72.905621
30
0.0
11
-51.525081
21
-73.365033
31
0.0
0
LINE
8
FOOTPATH
10
-51.525081
20
-73.365033
30
0.0
11
-52.327703
21
-73.828080
31
0.0
0
LINE
8
FOOTPATH
10
-52.327703
20
-73.828080
30
0.0
11
-53.119062
21
-74.292048
31
0.0
0
LINE
8
FOOTPATH
10
-53.119062
20
-74.292048
30
0.0
11
-53.897625
21
-74.754683
31
0.0
0
LINE
8
FOOTPATH
10
-53.897625
20
-74.754683
30
0.0
11
-54.662139
21
-75.214126
31
0.0
0
LINE
8
FOOTPATH
10
-54.662139
20
-75.214126
30
0.0
11
-55.411590
21
-75.668863
31
0.0
0
LINE
8
FOOTPATH
10
-55.411590
20
-75.668863
30
0.0
11
-56.145166
21
-76.117666
31
0.0
0
LINE
8
FOOTPATH
10
-56.145166
20
-76.117666
30
0.0
11
-56.862227
21
-76.559554
31
0.0
0
LINE
8
FOOTPATH
10
-56.862227
20
-76.559554
30
0.0
11
-57.562271
21
-76.993749
31
0.0
0
LINE
8
FOOTPATH
10
-57.562271
20
-76.993749
30
0.0
11
-58.244912
21
-77.419644
31
0.0
0
LINE
8
FOOTPATH
10
-58.244912
20
-77.419644
30
0.0
11
-58.909859
21
-77.836776
31
0.0
0
LINE
8
FOOTPATH
10
-58.909859
20
-77.836776
30
0.0
11
-59.556893
21
-78.244803
31
0.0
0
LINE
8
FOOTPATH
10
-59.556893
20
-78.244803
30
0.0
11
-60.185859
21
-78.643483
31
0.0
0
LINE
8
FOOTPATH
10
-60.185859
20
-78.643483
30
0.0
11
-60.796652
21
-79.032657
31
0.0
0
LINE
8
FOOTPATH
10
-60.796652
20
-79.032657
30
0.0
11
-61.389207
21
-79.412238
31
0.0
0
LINE
8
FOOTPATH
10
-61.389207
20
-79.412238
30
0.0
11
-61.963494
21
-79.782196
31
0.0
0
LINE
8
FOOTPATH
10
-61.963494
20
-79.782196
30
0.0
11
-62.519512
21
-80.142554
31
0.0
0
LINE
8
FOOTPATH
10
-62.519512
20
-80.142554
30
0.0
11
-63.057283
21
-80.493375
31
0.0
0
LINE
8
FOOTPATH
10
-63.057283
20
-80.493375
30
0.0
11
-63.576852
21
-80.834755
31
0.0
0
LINE
8
FOOTPATH
10
-63.576852
20
-80.834755
30
0.0
11
-64.078279
21
-81.166822
31
0.0
0
LINE
8
FOOTPATH
10
-64.078279
20
-81.166822
30
0.0
11
-64.561646
21
-81.489726
31
0.0
0
LINE
8
FOOTPATH
10
-64.561646
20
-81.489726
30
0.0
11
-65.027046
21
-81.803637
31
0.0
0
LINE
8
FOOTPATH
10
-65.027046
20
-81.803637
30
0.0
11
-65.474588
21
-82.108741
31
0.0
0
LINE
8
FOOTPATH
10
-65.474588
20
-82.108741
30
0.0
11
-65.904395
21
-82.405236
31
0.0
0
LINE
8
FOOTPATH
10
-65.904395
20
-82.405236
30
0.0
11
-66.316600
21
-82.693330
31
0.0
0
LINE
8
FOOTPATH
10
-66.316600
20
-82.693330
30
0.0
11
-66.711350
21
-82.973239
31
0.0
0
LINE
8
FOOTPATH
10
-66.711350
20
-82.973239
30
0.0
11
-67.088801
21
-83.245183
31
0.0
0
LINE
8
FOOTPATH
10
-67.088801
20
-83.245183
30
0.0
11
-67.449121
21
-83.509384
31
0.0
0
LINE
8
FOOTPATH
10
-67.449121
20
-83.509384
30
0.0
11
-67.792487
21
-83.766069
31
0.0
0
LINE
8
FOOTPATH
10
-67.792487
20
-83.766069
30
0.0
11
-68.119085
21
-84.015461
31
0.0
0
LINE
8
FOOTPATH
10
-68.119085
20
-84.015461
30
0.0
11
-68.429109
21
-84.257784
31
0.0
0
LINE
8
FOOTPATH
10
-68.429109
20
-84.257784
30
0.0
11
-68.722764
21
-84.493260
31
0.0
0
LINE
8
FOOTPATH
10
-68.722764
20
-84.493260
30
0.0
11
-69.000258
21
-84.722105
31
0.0
0
LINE
8
FOOTPATH
10
-69.000258
20
-84.722105
30
0.0
11
-69.261809
21
-84.944535
31
0.0
0
LINE
8
FOOTPATH
10
-69.261809
20
-84.944535
30
0.0
11
-69.507641
21
-85.160759
31
0.0
0
LINE
8
FOOTPATH
10
-69.507641
20
-85.160759
30
0.0
11
-69.737981
21
-85.370979
31
0.0
0
LINE
8
FOOTPATH
10
-69.737981
20
-85.370979
30
0.0
11
-69.953064
21
-85.575395
31
0.0
0
LINE
8
FOOTPATH
10
-69.953064
20
-85.575395
30
0.0
11
-70.153128
21
-85.774199
31
0.0
0
LINE
8
FOOTPATH
10
-70.153128
20
-85.774199
30
0.0
11
-70.338416
21
-85.967576
31
0.0
0
LINE
8
FOOTPATH
10
-70.338416
20
-85.967576
30
0.0
11
-70.509172
21
-86.155706
31
0.0
0
LINE
8
FOOTPATH
10
-70.509172
20
-86.155706
30
0.0
11
-70.665647
21
-86.338761
31
0.0
0
LINE
8
FOOTPATH
10
-70.665647
20
-86.338761
30
0.0
11
-70.808089
21
-86.516908
31
0.0
0
LINE
8
FOOTPATH
10
-70.808089
20
-86.516908
30
0.0
11
-70.936752
21
-86.690307
31
0.0
0
LINE
8
FOOTPATH
10
-70.936752
20
-86.690307
30
0.0
11
-71.051889
21
-86.859108
31
0.0
0
LINE
8
FOOTPATH
10
-71.051889
20
-86.859108
30
0.0
11
-71.153756
21
-87.023460
31
0.0
0
LINE
8
FOOTPATH
10
-71.153756
20
-87.023460
30
0.0
11
-71.242608
21
-87.183500
31
0.0
0
LINE
8
FOOTPATH
10
-71.242608
20
-87.183500
30
0.0
11
-71.318701
21
-87.339362
31
0.0
0
LINE
8
FOOTPATH
10
-71.318701
20
-87.339362
30
0.0
11
-71.382288
21
-87.491172
31
0.0
0
LINE
8
FOOTPATH
10
-71.382288
20
-87.491172
30
0.0
11
-71.433626
21
-87.639051
31
0.0
0
LINE
8
FOOTPATH
10
-71.433626
20
-87.639051
30
0.0
11
-71.472968
21
-87.783113
31
0.0
0
LINE
8
FOOTPATH
10
-71.472968
20
-87.783113
30
0.0
11
-71.500565
21
-87.923468
31
0.0
0
LINE
8
FOOTPATH
10
-71.500565
20
-87.923468
30
0.0
11
-71.516670
21
-88.060219
31
0.0
0
LINE
8
FOOTPATH
10
-71.516670
20
-88.060219
30
0.0
11
-71.521531
21
-88.193463
31
0.0
0
LINE
8
FOOTPATH
10
-71.521531
20
-88.193463
30
0.0
11
-71.515396
21
-88.323293
31
0.0
0
LINE
8
FOOTPATH
10
-71.515396
20
-88.323293
30
0.0
11
-71.498509
21
-88.449798
31
0.0
0
LINE
8
FOOTPATH
10
-71.498509
20
-88.449798
30
0.0
11
-71.471113
21
-88.573061
31
0.0
0
LINE
8
FOOTPATH
10
-71.471113
20
-88.573061
30
0.0
11
-71.433449
21
-88.693160
31
0.0
0
LINE
8
FOOTPATH
10
-71.433449
20
-88.693160
30
0.0
11
-71.385753
21
-88.810171
31
0.0
0
LINE
8
FOOTPATH
10
-71.385753
20
-88.810171
30
0.0
11
-71.328261
21
-88.924164
31
0.0
0
LINE
8
FOOTPATH
10
-71.328261
20
-88.924164
30
0.0
11
-71.261204
21
-89.035207
31
0.0
0
LINE
8
FOOTPATH
10
-71.261204
20
-89.035207
30
0.0
11
-71.184809
21
-89.143362
31
0.0
0
LINE
8
FOOTPATH
10
-71.184809
20
-89.143362
30
0.0
11
-71.099304
21
-89.248691
31
0.0
0
LINE
8
FOOTPATH
10
-71.099304
20
-89.248691
30
0.0
11
-71.004910
21
-89.351250
31
0.0
0
LINE
8
FOOTPATH
10
-71.004910
20
-89.351250
30
0.0
11
-70.901845
21
-89.451093
31
0.0
0
LINE
8
FOOTPATH
10
-70.901845
20
-89.451093
30
0.0
11
-70.790325
21
-89.548272
31
0.0
0
LINE
8
FOOTPATH
10
-70.790325
20
-89.548272
30
0.0
11
-70.670563
21
-89.642837
31
0.0
0
LINE
8
FOOTPATH
10
-70.670563
20
-89.642837
30
0.0
11
-70.542767
21
-89.734833
31
0.0
0
LINE
8
FOOTPATH
10
-70.542767
20
-89.734833
30
0.0
11
-70.407141
21
-89.824306
31
0.0
0
LINE
8
FOOTPATH
10
-70.407141
20
-89.824306
30
0.0
11
-70.263888
21
-89.911298
31
0.0
0
LINE
8
FOOTPATH
10
-70.263888
20
-89.911298
30
0.0
11
-70.113205
21
-89.995850
31
0.0
0
LINE
8
FOOTPATH
10
-70.113205
20
-89.995850
30
0.0
11
-69.955287
21
-90.078001
31
0.0
0
LINE
8
FOOTPATH
10
-69.955287
20
-90.078001
30
0.0
11
-69.790325
21
-90.157789
31
0.0
0
LINE
8
FOOTPATH
10
-69.790325
20
-90.157789
30
0.0
11
-69.618505
21
-90.235250
31
0.0
0
LINE
8
FOOTPATH
10
-69.618505
20
-90.235250
30
0.0
11
-69.440013
21
-90.310419
31
0.0
0
LINE
8
FOOTPATH
10
-69.440013
20
-90.310419
30
0.0
11
-69.255028
21
-90.383331
31
0.0
0
LINE
8
FOOTPATH
10
-69.255028
20
-90.383331
30
0.0
11
-69.063727
21
-90.454018
31
0.0
0
LINE
8
FOOTPATH
10
-69.063727
20
-90.454018
30
0.0
11
-68.866283
21
-90.522512
31
0.0
0
LINE
8
FOOTPATH
10
-68.866283
20
-90.522512
30
0.0
11
-68.662866
21
-90.588846
31
0.0
0
LINE
8
FOOTPATH
10
-68.662866
20
-90.588846
30
0.0
11
-68.453641
21
-90.653049
31
0.0
0
LINE
8
FOOTPATH
10
-68.453641
20
-90.653049
30
0.0
11
-68.238772
21
-90.715153
31
0.0
0
LINE
8
FOOTPATH
10
-68.238772
20
-90.715153
30
0.0
11
-68.018419
21
-90.775186
31
0.0
0
LINE
8
FOOTPATH
10
-68.018419
20
-90.775186
30
0.0
11
-67.792735
21
-90.833179
31
0.0
0
LINE
8
FOOTPATH
10
-67.792735
20
-90.833179
30
0.0
11
-67.561875
21
-90.889161
31
0.0
0
LINE
8
FOOTPATH
10
-67.561875
20
-90.889161
30
0.0
11
-67.325988
21
-90.943161
31
0.0
0
LINE
8
FOOTPATH
10
-67.325988
20
-90.943161
30
0.0
11
-67.085218
21
-90.995207
31
0.0
0
LINE
8
FOOTPATH
10
-67.085218
20
-90.995207
30
0.0
11
-66.839708
21
-91.045329
31
0.0
0
LINE
8
FOOTPATH
10
-66.839708
20
-91.045329
30
0.0
11
-66.589598
21
-91.093555
31
0.0
0
LINE
8
FOOTPATH
10
-66.589598
20
-91.093555
30
0.0
11
-66.335023
21
-91.139914
31
0.0
0
LINE
8
FOOTPATH
10
-66.335023
20
-91.139914
30
0.0
11
-66.076115
21
-91.184436
31
0.0
0
LINE
8
FOOTPATH
10
-66.076115
20
-91.184436
30
0.0
11
-65.813005
21
-91.227149
31
0.0
0
LINE
8
FOOTPATH
10
-65.813005
20
-91.227149
30
0.0
11
-65.545818
21
-91.268082
31
0.0
0
LINE
8
FOOTPATH
10
-65.545818
20
-91.268082
30
0.0
11
-65.274677
21
-91.307266
31
0.0
0
LINE
8
FOOTPATH
10
-65.274677
20
-91.307266
30
0.0
11
-64.999702
21
-91.344729
31
0.0
0
LINE
8
FOOTPATH
10
-64.999702
20
-91.344729
30
0.0
11
-64.721010
21
-91.380503
31
0.0
0
LINE
8
FOOTPATH
10
-64.721010
20
-91.380503
30
0.0
11
-64.438715
21
-91.414617
31
0.0
0
LINE
8
FOOTPATH
10
-64.438715
20
-91.414617
30
0.0
11
-64.152926
21
-91.447103
31
0.0
0
LINE
8
FOOTPATH
10
-64.152926
20
-91.447103
30
0.0
11
-63.863751
21
-91.477991
31
0.0
0
LINE
8
FOOTPATH
10
-63.863751
20
-91.477991
30
0.0
11
-63.571296
21
-91.507314
31
0.0
0
LINE
8
FOOTPATH
10
-63.571296
20
-91.507314
30
0.0
11
-63.275661
21
-91.535102
31
0.0
0
LINE
8
FOOTPATH
10
-63.275661
20
-91.535102
30
0.0
11
-62.976945
21
-91.561390
31
0.0
0
LINE
8
FOOTPATH
10
-62.976945
20
-91.561390
30
0.0
11
-62.675244
21
-91.586208
31
0.0
0
LINE
8
FOOTPATH
10
-62.675244
20
-91.586208
30
0.0
11
-62.370650
21
-91.609591
31
0.0
0
LINE
8
FOOTPATH
10
-62.370650
20
-91.609591
30
0.0
11
-62.063253
21
-91.631573
31
0.0
0
LINE
8
FOOTPATH
10
-62.063253
20
-91.631573
30
0.0
11
-61.753141
21
-91.652187
31
0.0
0
LINE
8
FOOTPATH
10
-61.753141
20
-91.652187
30
0.0
11
-61.440396
21
-91.671468
31
0.0
0
LINE
8
FOOTPATH
10
-61.440396
20
-91.671468
30
0.0
11
-61.125101
21
-91.689451
31
0.0
0
LINE
8
FOOTPATH
10
-61.125101
20
-91.689451
30
0.0
11
-60.807333
21
-91.706172
31
0.0
0
LINE
8
FOOTPATH
10
-60.807333
20
-91.706172
30
0.0
11
-60.487168
21
-91.721667
31
0.0
0
LINE
8
FOOTPATH
10
-60.487168
20
-91.721667
30
0.0
11
-60.164680
21
-91.735971
31
0.0
0
LINE
8
FOOTPATH
10
-60.164680
20
-91.735971
30
0.0
11
-59.839937
21
-91.749121
31
0.0
0
LINE
8
FOOTPATH
10
-59.839937
20
-91.749121
30
0.0
11
-59.513008
21
-91.761156
31
0.0
0
LINE
8
FOOTPATH
10
-59.513008
20
-91.761156
30
0.0
11
-59.183958
21
-91.772111
31
0.0
0
LINE
8
FOOTPATH
10
-59.183958
20
-91.772111
30
0.0
11
-58.852847
21
-91.782024
31
0.0
0
LINE
8
FOOTPATH
10
-58.852847
20
-91.782024
30
0.0
11
-58.519736
21
-91.790935
31
0.0
0
LINE
8
FOOTPATH
10
-58.519736
20
-91.790935
30
0.0
11
-58.184680
21
-91.798881
31
0.0
0
LINE
8
FOOTPATH
10
-58.184680
20
-91.798881
30
0.0
11
-57.847735
21
-91.805900
31
0.0
0
LINE
8
FOOTPATH
10
-57.847735
20
-91.805900
30
0.0
11
-57.508951
21
-91.812032
31
0.0
0
LINE
8
FOOTPATH
10
-57.508951
20
-91.812032
30
0.0
11
-57.168378
21
-91.817316
31
0.0
0
LINE
8
FOOTPATH
10
-57.168378
20
-91.817316
30
0.0
11
-56.826061
21
-91.821791
31
0.0
0
LINE
8
FOOTPATH
10
-56.826061
20
-91.821791
30
0.0
11
-56.482045
21
-91.825496
31
0.0
0
LINE
8
FOOTPATH
10
-56.482045
20
-91.825496
30
0.0
11
-56.136371
21
-91.828470
31
0.0
0
LINE
8
FOOTPATH
10
-56.136371
20
-91.828470
30
0.0
11
-55.789078
21
-91.830754
31
0.0
0
LINE
8
FOOTPATH
10
-55.789078
20
-91.830754
30
0.0
11
-55.440202
21
-91.832387
31
0.0
0
LINE
8
FOOTPATH
10
-55.440202
20
-91.832387
30
0.0
11
-55.089778
21
-91.833409
31
0.0
0
LINE
8
FOOTPATH
10
-55.089778
20
-91.833409
30
0.0
11
-54.737838
21
-91.833857
31
0.0
0
LINE
8
FOOTPATH
10
-54.737838
20
-91.833857
30
0.0
11
-54.384410
21
-91.833773
31
0.0
0
LINE
8
FOOTPATH
10
-54.384410
20
-91.833773
30
0.0
11
-54.029523
21
-91.833196
31
0.0
0
LINE
8
FOOTPATH
10
-54.029523
20
-91.833196
30
0.0
11
-53.673201
21
-91.832163
31
0.0
0
LINE
8
FOOTPATH
10
-53.673201
20
-91.832163
30
0.0
11
-53.315468
21
-91.830714
31
0.0
0
LINE
8
FOOTPATH
10
-53.315468
20
-91.830714
30
0.0
11
-52.956344
21
-91.828886
31
0.0
0
LINE
8
FOOTPATH
10
-52.956344
20
-91.828886
30
0.0
11
-52.595848
21
-91.826719
31
0.0
0
LINE
8
FOOTPATH
10
-52.595848
20
-91.826719
30
0.0
11
-52.233997
21
-91.824248
31
0.0
0
LINE
8
FOOTPATH
10
-52.233997
20
-91.824248
30
0.0
11
-51.870806
21
-91.821512
31
0.0
0
LINE
8
FOOTPATH
10
-51.870806
20
-91.821512
30
0.0
11
-51.506288
21
-91.818546
31
0.0
0
LINE
8
FOOTPATH
10
-51.506288
20
-91.818546
30
0.0
11
-51.140454
21
-91.815386
31
0.0
0
LINE
8
FOOTPATH
10
-51.140454
20
-91.815386
30
0.0
11
-50.773315
21
-91.812067
31
0.0
0
LINE
8
FOOTPATH
10
-50.773315
20
-91.812067
30
0.0
11
-50.404877
21
-91.808624
31
0.0
0
LINE
8
FOOTPATH
10
-50.404877
20
-91.808624
30
0.0
11
-50.035148
21
-91.805088
31
0.0
0
LINE
8
FOOTPATH
10
-50.035148
20
-91.805088
30
0.0
11
-49.664133
21
-91.801494
31
0.0
0
LINE
8
FOOTPATH
10
-49.664133
20
-91.801494
30
0.0
11
-49.291835
21
-91.797872
31
0.0
0
LINE
8
FOOTPATH
10
-49.291835
20
-91.797872
30
0.0
11
-48.918257
21
-91.794252
31
0.0
0
LINE
8
FOOTPATH
10
-48.918257
20
-91.794252
30
0.0
11
-48.543400
21
-91.790664
31
0.0
0
LINE
8
FOOTPATH
10
-48.543400
20
-91.790664
30
0.0
11
-48.167265
21
-91.787137
31
0.0
0
LINE
8
FOOTPATH
10
-48.167265
20
-91.787137
30
0.0
11
-47.789850
21
-91.783696
31
0.0
0
LINE
8
FOOTPATH
10
-47.789850
20
-91.783696
30
0.0
11
-47.411155
21
-91.780367
31
0.0
0
LINE
8
FOOTPATH
10
-47.411155
20
-91.780367
30
0.0
11
-47.031177
21
-91.777175
31
0.0
0
LINE
8
FOOTPATH
10
-47.031177
20
-91.777175
30
0.0
11
-46.649913
21
-91.774141
31
0.0
0
LINE
8
FOOTPATH
10
-46.649913
20
-91.774141
30
0.0
11
-46.267361
21
-91.771288
31
0.0
0
LINE
8
FOOTPATH
10
-46.267361
20
-91.771288
30
0.0
11
-45.883516
21
-91.768634
31
0.0
0
LINE
8
FOOTPATH
10
-45.883516
20
-91.768634
30
0.0
11
-45.498375
21
-91.766198
31
0.0
0
LINE
8
FOOTPATH
10
-45.498375
20
-91.766198
30
0.0
11
-45.111934
21
-91.763996
31
0.0
0
LINE
8
FOOTPATH
10
-45.111934
20
-91.763996
30
0.0
11
-44.724190
21
-91.762041
31
0.0
0
LINE
8
FOOTPATH
10
-44.724190
20
-91.762041
30
0.0
11
-44.335138
21
-91.760348
31
0.0
0
LINE
8
FOOTPATH
10
-44.335138
20
-91.760348
30
0.0
11
-43.944776
21
-91.758927
31
0.0
0
LINE
8
FOOTPATH
10
-43.944776
20
-91.758927
30
0.0
11
-43.553101
21
-91.757786
31
0.0
0
LINE
8
FOOTPATH
10
-43.553101
20
-91.757786
30
0.0
11
-43.160111
21
-91.756933
31
0.0
0
ENDSEC
0
EOF
