0
SECTION
2
TABLES
0
TABLE
2
LAYER
70
2
0
LAYER
2
PARTS
70
0
62
1
6
CONTINUOUS
0
LAYER
2
HOLES
70
0
62
2
6
CONTINUOUS
0
ENDTAB
0
ENDSEC
0
SECTION
2
ENTITIES
0
LINE
8
PARTS
10
15.000000
20
-6.000000
30
0.0
11
15.783157
21
-5.948669
31
0.0
0
LINE
8
PARTS
10
15.783157
20
-5.948669
30
0.0
11
16.552914
21
-5.795555
31
0.0
0
LINE
8
PARTS
10
16.552914
20
-5.795555
30
0.0
11
17.296101
21
-5.543277
31
0.0
0
LINE
8
PARTS
10
17.296101
20
-5.543277
30
0.0
11
18.000000
21
-5.196152
31
0.0
0
LINE
8
PARTS
10
18.000000
20
-5.196152
30
0.0
11
18.652569
21
-4.760120
31
0.0
0
LINE
8
PARTS
10
18.652569
20
-4.760120
30
0.0
11
19.242641
21
-4.242641
31
0.0
0
LINE
8
PARTS
10
19.242641
20
-4.242641
30
0.0
11
19.760120
21
-3.652569
31
0.0
0
LINE
8
PARTS
10
19.760120
20
-3.652569
30
0.0
11
20.196152
21
-3.000000
31
0.0
0
LINE
8
PARTS
10
20.196152
20
-3.000000
30
0.0
11
20.543277
21
-2.296101
31
0.0
0
LINE
8
PARTS
10
20.543277
20
-2.296101
30
0.0
11
20.795555
21
-1.552914
31
0.0
0
LINE
8
PARTS
10
20.795555
20
-1.552914
30
0.0
11
20.948669
21
-0.783157
31
0.0
0
LINE
8
PARTS
10
20.948669
20
-0.783157
30
0.0
11
21.000000
21
0.000000
31
0.0
0
LINE
8
PARTS
10
21.000000
20
0.000000
30
0.0
11
20.948669
21
0.783157
31
0.0
0
LINE
8
PARTS
10
20.948669
20
0.783157
30
0.0
11
20.795555
21
1.552914
31
0.0
0
LINE
8
PARTS
10
20.795555
20
1.552914
30
0.0
11
20.543277
21
2.296101
31
0.0
0
LINE
8
PARTS
10
20.543277
20
2.296101
30
0.0
11
20.196152
21
3.000000
31
0.0
0
LINE
8
PARTS
10
20.196152
20
3.000000
30
0.0
11
19.760120
21
3.652569
31
0.0
0
LINE
8
PARTS
10
19.760120
20
3.652569
30
0.0
11
19.242641
21
4.242641
31
0.0
0
LINE
8
PARTS
10
19.242641
20
4.242641
30
0.0
11
18.652569
21
4.760120
31
0.0
0
LINE
8
PARTS
10
18.652569
20
4.760120
30
0.0
11
18.000000
21
5.196152
31
0.0
0
LINE
8
PARTS
10
18.000000
20
5.196152
30
0.0
11
17.296101
21
5.543277
31
0.0
0
LINE
8
PARTS
10
17.296101
20
5.543277
30
0.0
11
16.552914
21
5.795555
31
0.0
0
LINE
8
PARTS
10
16.552914
20
5.795555
30
0.0
11
15.783157
21
5.948669
31
0.0
0
LINE
8
PARTS
10
15.783157
20
5.948669
30
0.0
11
15.000000
21
6.000000
31
0.0
0
LINE
8
PARTS
10
15.000000
20
6.000000
30
0.0
11
-0.000000
21
6.000000
31
0.0
0
LINE
8
PARTS
10
-0.000000
20
6.000000
30
0.0
11
-0.783157
21
5.948669
31
0.0
0
LINE
8
PARTS
10
-0.783157
20
5.948669
30
0.0
11
-1.552914
21
5.795555
31
0.0
0
LINE
8
PARTS
10
-1.552914
20
5.795555
30
0.0
11
-2.296101
21
5.543277
31
0.0
0
LINE
8
PARTS
10
-2.296101
20
5.543277
30
0.0
11
-3.000000
21
5.196152
31
0.0
0
LINE
8
PARTS
10
-3.000000
20
5.196152
30
0.0
11
-3.652569
21
4.760120
31
0.0
0
LINE
8
PARTS
10
-3.652569
20
4.760120
30
0.0
11
-4.242641
21
4.242641
31
0.0
0
LINE
8
PARTS
10
-4.242641
20
4.242641
30
0.0
11
-4.760120
21
3.652569
31
0.0
0
LINE
8
PARTS
10
-4.760120
20
3.652569
30
0.0
11
-5.196152
21
3.000000
31
0.0
0
LINE
8
PARTS
10
-5.196152
20
3.000000
30
0.0
11
-5.543277
21
2.296101
31
0.0
0
LINE
8
PARTS
10
-5.543277
20
2.296101
30
0.0
11
-5.795555
21
1.552914
31
0.0
0
LINE
8
PARTS
10
-5.795555
20
1.552914
30
0.0
11
-5.948669
21
0.783157
31
0.0
0
LINE
8
PARTS
10
-5.948669
20
0.783157
30
0.0
11
-6.000000
21
0.000000
31
0.0
0
LINE
8
PARTS
10
-6.000000
20
0.000000
30
0.0
11
-5.948669
21
-0.783157
31
0.0
0
LINE
8
PARTS
10
-5.948669
20
-0.783157
30
0.0
11
-5.795555
21
-1.552914
31
0.0
0
LINE
8
PARTS
10
-5.795555
20
-1.552914
30
0.0
11
-5.543277
21
-2.296101
31
0.0
0
LINE
8
PARTS
10
-5.543277
20
-2.296101
30
0.0
11
-5.196152
21
-3.000000
31
0.0
0
LINE
8
PARTS
10
-5.196152
20
-3.000000
30
0.0
11
-4.760120
21
-3.652569
31
0.0
0
LINE
8
PARTS
10
-4.760120
20
-3.652569
30
0.0
11
-4.242641
21
-4.242641
31
0.0
0
LINE
8
PARTS
10
-4.242641
20
-4.242641
30
0.0
11
-3.652569
21
-4.760120
31
0.0
0
LINE
8
PARTS
10
-3.652569
20
-4.760120
30
0.0
11
-3.000000
21
-5.196152
31
0.0
0
LINE
8
PARTS
10
-3.000000
20
-5.196152
30
0.0
11
-2.296101
21
-5.543277
31
0.0
0
LINE
8
PARTS
10
-2.296101
20
-5.543277
30
0.0
11
-1.552914
21
-5.795555
31
0.0
0
LINE
8
PARTS
10
-1.552914
20
-5.795555
30
0.0
11
-0.783157
21
-5.948669
31
0.0
0
LINE
8
PARTS
10
-0.783157
20
-5.948669
30
0.0
11
-0.000000
21
-6.000000
31
0.0
0
LINE
8
PARTS
10
-0.000000
20
-6.000000
30
0.0
11
15.000000
21
-6.000000
31
0.0
0
CIRCLE
8
HOLES
10
0.000000
20
0.000000
30
0.0
40
4.000000
0
CIRCLE
8
HOLES
10
15.000000
20
0.000000
30
0.0
40
4.000000
0
LINE
8
PARTS
10
51.941327
20
-28.000000
30
0.0
11
52.724484
21
-27.948669
31
0.0
0
LINE
8
PARTS
10
52.724484
20
-27.948669
30
0.0
11
53.494241
21
-27.795555
31
0.0
0
LINE
8
PARTS
10
53.494241
20
-27.795555
30
0.0
11
54.237427
21
-27.543277
31
0.0
0
LINE
8
PARTS
10
54.237427
20
-27.543277
30
0.0
11
54.941327
21
-27.196152
31
0.0
0
LINE
8
PARTS
10
54.941327
20
-27.196152
30
0.0
11
55.593895
21
-26.760120
31
0.0
0
LINE
8
PARTS
10
55.593895
20
-26.760120
30
0.0
11
56.183967
21
-26.242641
31
0.0
0
LINE
8
PARTS
10
56.183967
20
-26.242641
30
0.0
11
56.701447
21
-25.652569
31
0.0
0
LINE
8
PARTS
10
56.701447
20
-25.652569
30
0.0
11
57.137479
21
-25.000000
31
0.0
0
LINE
8
PARTS
10
57.137479
20
-25.000000
30
0.0
11
57.484604
21
-24.296101
31
0.0
0
LINE
8
PARTS
10
57.484604
20
-24.296101
30
0.0
11
57.736882
21
-23.552914
31
0.0
0
LINE
8
PARTS
10
57.736882
20
-23.552914
30
0.0
11
57.889996
21
-22.783157
31
0.0
0
LINE
8
PARTS
10
57.889996
20
-22.783157
30
0.0
11
57.941327
21
-22.000000
31
0.0
0
LINE
8
PARTS
10
57.941327
20
-22.000000
30
0.0
11
57.889996
21
-21.216843
31
0.0
0
LINE
8
PARTS
10
57.889996
20
-21.216843
30
0.0
11
57.736882
21
-20.447086
31
0.0
0
LINE
8
PARTS
10
57.736882
20
-20.447086
30
0.0
11
57.484604
21
-19.703899
31
0.0
0
LINE
8
PARTS
10
57.484604
20
-19.703899
30
0.0
11
57.137479
21
-19.000000
31
0.0
0
LINE
8
PARTS
10
57.137479
20
-19.000000
30
0.0
11
56.701447
21
-18.347431
31
0.0
0
LINE
8
PARTS
10
56.701447
20
-18.347431
30
0.0
11
56.183967
21
-17.757359
31
0.0
0
LINE
8
PARTS
10
56.183967
20
-17.757359
30
0.0
11
55.593895
21
-17.239880
31
0.0
0
LINE
8
PARTS
10
55.593895
20
-17.239880
30
0.0
11
54.941327
21
-16.803848
31
0.0
0
LINE
8
PARTS
10
54.941327
20
-16.803848
30
0.0
11
54.237427
21
-16.456723
31
0.0
0
LINE
8
PARTS
10
54.237427
20
-16.456723
30
0.0
11
53.494241
21
-16.204445
31
0.0
0
LINE
8
PARTS
10
53.494241
20
-16.204445
30
0.0
11
52.724484
21
-16.051331
31
0.0
0
LINE
8
PARTS
10
52.724484
20
-16.051331
30
0.0
11
51.941327
21
-16.000000
31
0.0
0
LINE
8
PARTS
10
51.941327
20
-16.000000
30
0.0
11
-0.000000
21
-16.000000
31
0.0
0
LINE
8
PARTS
10
-0.000000
20
-16.000000
30
0.0
11
-0.783157
21
-16.051331
31
0.0
0
LINE
8
PARTS
10
-0.783157
20
-16.051331
30
0.0
11
-1.552914
21
-16.204445
31
0.0
0
LINE
8
PARTS
10
-1.552914
20
-16.204445
30
0.0
11
-2.296101
21
-16.456723
31
0.0
0
LINE
8
PARTS
10
-2.296101
20
-16.456723
30
0.0
11
-3.000000
21
-16.803848
31
0.0
0
LINE
8
PARTS
10
-3.000000
20
-16.803848
30
0.0
11
-3.652569
21
-17.239880
31
0.0
0
LINE
8
PARTS
10
-3.652569
20
-17.239880
30
0.0
11
-4.242641
21
-17.757359
31
0.0
0
LINE
8
PARTS
10
-4.242641
20
-17.757359
30
0.0
11
-4.760120
21
-18.347431
31
0.0
0
LINE
8
PARTS
10
-4.760120
20
-18.347431
30
0.0
11
-5.196152
21
-19.000000
31
0.0
0
LINE
8
PARTS
10
-5.196152
20
-19.000000
30
0.0
11
-5.543277
21
-19.703899
31
0.0
0
LINE
8
PARTS
10
-5.543277
20
-19.703899
30
0.0
11
-5.795555
21
-20.447086
31
0.0
0
LINE
8
PARTS
10
-5.795555
20
-20.447086
30
0.0
11
-5.948669
21
-21.216843
31
0.0
0
LINE
8
PARTS
10
-5.948669
20
-21.216843
30
0.0
11
-6.000000
21
-22.000000
31
0.0
0
LINE
8
PARTS
10
-6.000000
20
-22.000000
30
0.0
11
-5.948669
21
-22.783157
31
0.0
0
LINE
8
PARTS
10
-5.948669
20
-22.783157
30
0.0
11
-5.795555
21
-23.552914
31
0.0
0
LINE
8
PARTS
10
-5.795555
20
-23.552914
30
0.0
11
-5.543277
21
-24.296101
31
0.0
0
LINE
8
PARTS
10
-5.543277
20
-24.296101
30
0.0
11
-5.196152
21
-25.000000
31
0.0
0
LINE
8
PARTS
10
-5.196152
20
-25.000000
30
0.0
11
-4.760120
21
-25.652569
31
0.0
0
LINE
8
PARTS
10
-4.760120
20
-25.652569
30
0.0
11
-4.242641
21
-26.242641
31
0.0
0
LINE
8
PARTS
10
-4.242641
20
-26.242641
30
0.0
11
-3.652569
21
-26.760120
31
0.0
0
LINE
8
PARTS
10
-3.652569
20
-26.760120
30
0.0
11
-3.000000
21
-27.196152
31
0.0
0
LINE
8
PARTS
10
-3.000000
20
-27.196152
30
0.0
11
-2.296101
21
-27.543277
31
0.0
0
LINE
8
PARTS
10
-2.296101
20
-27.543277
30
0.0
11
-1.552914
21
-27.795555
31
0.0
0
LINE
8
PARTS
10
-1.552914
20
-27.795555
30
0.0
11
-0.783157
21
-27.948669
31
0.0
0
LINE
8
PARTS
10
-0.783157
20
-27.948669
30
0.0
11
-0.000000
21
-28.000000
31
0.0
0
LINE
8
PARTS
10
-0.000000
20
-28.000000
30
0.0
11
51.941327
21
-28.000000
31
0.0
0
CIRCLE
8
HOLES
10
0.000000
20
-22.000000
30
0.0
40
4.000000
0
CIRCLE
8
HOLES
10
51.941327
20
-22.000000
30
0.0
40
4.000000
0
LINE
8
PARTS
10
40.597490
20
-50.000000
30
0.0
11
41.380647
21
-49.948669
31
0.0
0
LINE
8
PARTS
10
41.380647
20
-49.948669
30
0.0
11
42.150404
21
-49.795555
31
0.0
0
LINE
8
PARTS
10
42.150404
20
-49.795555
30
0.0
11
42.893590
21
-49.543277
31
0.0
0
LINE
8
PARTS
10
42.893590
20
-49.543277
30
0.0
11
43.597490
21
-49.196152
31
0.0
0
LINE
8
PARTS
10
43.597490
20
-49.196152
30
0.0
11
44.250058
21
-48.760120
31
0.0
0
LINE
8
PARTS
10
44.250058
20
-48.760120
30
0.0
11
44.840131
21
-48.242641
31
0.0
0
LINE
8
PARTS
10
44.840131
20
-48.242641
30
0.0
11
45.357610
21
-47.652569
31
0.0
0
LINE
8
PARTS
10
45.357610
20
-47.652569
30
0.0
11
45.793642
21
-47.000000
31
0.0
0
LINE
8
PARTS
10
45.793642
20
-47.000000
30
0.0
11
46.140767
21
-46.296101
31
0.0
0
LINE
8
PARTS
10
46.140767
20
-46.296101
30
0.0
11
46.393045
21
-45.552914
31
0.0
0
LINE
8
PARTS
10
46.393045
20
-45.552914
30
0.0
11
46.546159
21
-44.783157
31
0.0
0
LINE
8
PARTS
10
46.546159
20
-44.783157
30
0.0
11
46.597490
21
-44.000000
31
0.0
0
LINE
8
PARTS
10
46.597490
20
-44.000000
30
0.0
11
46.546159
21
-43.216843
31
0.0
0
LINE
8
PARTS
10
46.546159
20
-43.216843
30
0.0
11
46.393045
21
-42.447086
31
0.0
0
LINE
8
PARTS
10
46.393045
20
-42.447086
30
0.0
11
46.140767
21
-41.703899
31
0.0
0
LINE
8
PARTS
10
46.140767
20
-41.703899
30
0.0
11
45.793642
21
-41.000000
31
0.0
0
LINE
8
PARTS
10
45.793642
20
-41.000000
30
0.0
11
45.357610
21
-40.347431
31
0.0
0
LINE
8
PARTS
10
45.357610
20
-40.347431
30
0.0
11
44.840131
21
-39.757359
31
0.0
0
LINE
8
PARTS
10
44.840131
20
-39.757359
30
0.0
11
44.250058
21
-39.239880
31
0.0
0
LINE
8
PARTS
10
44.250058
20
-39.239880
30
0.0
11
43.597490
21
-38.803848
31
0.0
0
LINE
8
PARTS
10
43.597490
20
-38.803848
30
0.0
11
42.893590
21
-38.456723
31
0.0
0
LINE
8
PARTS
10
42.893590
20
-38.456723
30
0.0
11
42.150404
21
-38.204445
31
0.0
0
LINE
8
PARTS
10
42.150404
20
-38.204445
30
0.0
11
41.380647
21
-38.051331
31
0.0
0
LINE
8
PARTS
10
41.380647
20
-38.051331
30
0.0
11
40.597490
21
-38.000000
31
0.0
0
LINE
8
PARTS
10
40.597490
20
-38.000000
30
0.0
11
-0.000000
21
-38.000000
31
0.0
0
LINE
8
PARTS
10
-0.000000
20
-38.000000
30
0.0
11
-0.783157
21
-38.051331
31
0.0
0
LINE
8
PARTS
10
-0.783157
20
-38.051331
30
0.0
11
-1.552914
21
-38.204445
31
0.0
0
LINE
8
PARTS
10
-1.552914
20
-38.204445
30
0.0
11
-2.296101
21
-38.456723
31
0.0
0
LINE
8
PARTS
10
-2.296101
20
-38.456723
30
0.0
11
-3.000000
21
-38.803848
31
0.0
0
LINE
8
PARTS
10
-3.000000
20
-38.803848
30
0.0
11
-3.652569
21
-39.239880
31
0.0
0
LINE
8
PARTS
10
-3.652569
20
-39.239880
30
0.0
11
-4.242641
21
-39.757359
31
0.0
0
LINE
8
PARTS
10
-4.242641
20
-39.757359
30
0.0
11
-4.760120
21
-40.347431
31
0.0
0
LINE
8
PARTS
10
-4.760120
20
-40.347431
30
0.0
11
-5.196152
21
-41.000000
31
0.0
0
LINE
8
PARTS
10
-5.196152
20
-41.000000
30
0.0
11
-5.543277
21
-41.703899
31
0.0
0
LINE
8
PARTS
10
-5.543277
20
-41.703899
30
0.0
11
-5.795555
21
-42.447086
31
0.0
0
LINE
8
PARTS
10
-5.795555
20
-42.447086
30
0.0
11
-5.948669
21
-43.216843
31
0.0
0
LINE
8
PARTS
10
-5.948669
20
-43.216843
30
0.0
11
-6.000000
21
-44.000000
31
0.0
0
LINE
8
PARTS
10
-6.000000
20
-44.000000
30
0.0
11
-5.948669
21
-44.783157
31
0.0
0
LINE
8
PARTS
10
-5.948669
20
-44.783157
30
0.0
11
-5.795555
21
-45.552914
31
0.0
0
LINE
8
PARTS
10
-5.795555
20
-45.552914
30
0.0
11
-5.543277
21
-46.296101
31
0.0
0
LINE
8
PARTS
10
-5.543277
20
-46.296101
30
0.0
11
-5.196152
21
-47.000000
31
0.0
0
LINE
8
PARTS
10
-5.196152
20
-47.000000
30
0.0
11
-4.760120
21
-47.652569
31
0.0
0
LINE
8
PARTS
10
-4.760120
20
-47.652569
30
0.0
11
-4.242641
21
-48.242641
31
0.0
0
LINE
8
PARTS
10
-4.242641
20
-48.242641
30
0.0
11
-3.652569
21
-48.760120
31
0.0
0
LINE
8
PARTS
10
-3.652569
20
-48.760120
30
0.0
11
-3.000000
21
-49.196152
31
0.0
0
LINE
8
PARTS
10
-3.000000
20
-49.196152
30
0.0
11
-2.296101
21
-49.543277
31
0.0
0
LINE
8
PARTS
10
-2.296101
20
-49.543277
30
0.0
11
-1.552914
21
-49.795555
31
0.0
0
LINE
8
PARTS
10
-1.552914
20
-49.795555
30
0.0
11
-0.783157
21
-49.948669
31
0.0
0
LINE
8
PARTS
10
-0.783157
20
-49.948669
30
0.0
11
-0.000000
21
-50.000000
31
0.0
0
LINE
8
PARTS
10
-0.000000
20
-50.000000
30
0.0
11
40.597490
21
-50.000000
31
0.0
0
CIRCLE
8
HOLES
10
0.000000
20
-44.000000
30
0.0
40
4.000000
0
CIRCLE
8
HOLES
10
40.597490
20
-44.000000
30
0.0
40
4.000000
0
LINE
8
PARTS
10
56.093777
20
-72.000000
30
0.0
11
56.876935
21
-71.948669
31
0.0
0
LINE
8
PARTS
10
56.876935
20
-71.948669
30
0.0
11
57.646692
21
-71.795555
31
0.0
0
LINE
8
PARTS
10
57.646692
20
-71.795555
30
0.0
11
58.389878
21
-71.543277
31
0.0
0
LINE
8
PARTS
10
58.389878
20
-71.543277
30
0.0
11
59.093777
21
-71.196152
31
0.0
0
LINE
8
PARTS
10
59.093777
20
-71.196152
30
0.0
11
59.746346
21
-70.760120
31
0.0
0
LINE
8
PARTS
10
59.746346
20
-70.760120
30
0.0
11
60.336418
21
-70.242641
31
0.0
0
LINE
8
PARTS
10
60.336418
20
-70.242641
30
0.0
11
60.853897
21
-69.652569
31
0.0
0
LINE
8
PARTS
10
60.853897
20
-69.652569
30
0.0
11
61.289930
21
-69.000000
31
0.0
0
LINE
8
PARTS
10
61.289930
20
-69.000000
30
0.0
11
61.637055
21
-68.296101
31
0.0
0
LINE
8
PARTS
10
61.637055
20
-68.296101
30
0.0
11
61.889332
21
-67.552914
31
0.0
0
LINE
8
PARTS
10
61.889332
20
-67.552914
30
0.0
11
62.042447
21
-66.783157
31
0.0
0
LINE
8
PARTS
10
62.042447
20
-66.783157
30
0.0
11
62.093777
21
-66.000000
31
0.0
0
LINE
8
PARTS
10
62.093777
20
-66.000000
30
0.0
11
62.042447
21
-65.216843
31
0.0
0
LINE
8
PARTS
10
62.042447
20
-65.216843
30
0.0
11
61.889332
21
-64.447086
31
0.0
0
LINE
8
PARTS
10
61.889332
20
-64.447086
30
0.0
11
61.637055
21
-63.703899
31
0.0
0
LINE
8
PARTS
10
61.637055
20
-63.703899
30
0.0
11
61.289930
21
-63.000000
31
0.0
0
LINE
8
PARTS
10
61.289930
20
-63.000000
30
0.0
11
60.853897
21
-62.347431
31
0.0
0
LINE
8
PARTS
10
60.853897
20
-62.347431
30
0.0
11
60.336418
21
-61.757359
31
0.0
0
LINE
8
PARTS
10
60.336418
20
-61.757359
30
0.0
11
59.746346
21
-61.239880
31
0.0
0
LINE
8
PARTS
10
59.746346
20
-61.239880
30
0.0
11
59.093777
21
-60.803848
31
0.0
0
LINE
8
PARTS
10
59.093777
20
-60.803848
30
0.0
11
58.389878
21
-60.456723
31
0.0
0
LINE
8
PARTS
10
58.389878
20
-60.456723
30
0.0
11
57.646692
21
-60.204445
31
0.0
0
LINE
8
PARTS
10
57.646692
20
-60.204445
30
0.0
11
56.876935
21
-60.051331
31
0.0
0
LINE
8
PARTS
10
56.876935
20
-60.051331
30
0.0
11
56.093777
21
-60.000000
31
0.0
0
LINE
8
PARTS
10
56.093777
20
-60.000000
30
0.0
11
-0.000000
21
-60.000000
31
0.0
0
LINE
8
PARTS
10
-0.000000
20
-60.000000
30
0.0
11
-0.783157
21
-60.051331
31
0.0
0
LINE
8
PARTS
10
-0.783157
20
-60.051331
30
0.0
11
-1.552914
21
-60.204445
31
0.0
0
LINE
8
PARTS
10
-1.552914
20
-60.204445
30
0.0
11
-2.296101
21
-60.456723
31
0.0
0
LINE
8
PARTS
10
-2.296101
20
-60.456723
30
0.0
11
-3.000000
21
-60.803848
31
0.0
0
LINE
8
PARTS
10
-3.000000
20
-60.803848
30
0.0
11
-3.652569
21
-61.239880
31
0.0
0
LINE
8
PARTS
10
-3.652569
20
-61.239880
30
0.0
11
-4.242641
21
-61.757359
31
0.0
0
LINE
8
PARTS
10
-4.242641
20
-61.757359
30
0.0
11
-4.760120
21
-62.347431
31
0.0
0
LINE
8
PARTS
10
-4.760120
20
-62.347431
30
0.0
11
-5.196152
21
-63.000000
31
0.0
0
LINE
8
PARTS
10
-5.196152
20
-63.000000
30
0.0
11
-5.543277
21
-63.703899
31
0.0
0
LINE
8
PARTS
10
-5.543277
20
-63.703899
30
0.0
11
-5.795555
21
-64.447086
31
0.0
0
LINE
8
PARTS
10
-5.795555
20
-64.447086
30
0.0
11
-5.948669
21
-65.216843
31
0.0
0
LINE
8
PARTS
10
-5.948669
20
-65.216843
30
0.0
11
-6.000000
21
-66.000000
31
0.0
0
LINE
8
PARTS
10
-6.000000
20
-66.000000
30
0.0
11
-5.948669
21
-66.783157
31
0.0
0
LINE
8
PARTS
10
-5.948669
20
-66.783157
30
0.0
11
-5.795555
21
-67.552914
31
0.0
0
LINE
8
PARTS
10
-5.795555
20
-67.552914
30
0.0
11
-5.543277
21
-68.296101
31
0.0
0
LINE
8
PARTS
10
-5.543277
20
-68.296101
30
0.0
11
-5.196152
21
-69.000000
31
0.0
0
LINE
8
PARTS
10
-5.196152
20
-69.000000
30
0.0
11
-4.760120
21
-69.652569
31
0.0
0
LINE
8
PARTS
10
-4.760120
20
-69.652569
30
0.0
11
-4.242641
21
-70.242641
31
0.0
0
LINE
8
PARTS
10
-4.242641
20
-70.242641
30
0.0
11
-3.652569
21
-70.760120
31
0.0
0
LINE
8
PARTS
10
-3.652569
20
-70.760120
30
0.0
11
-3.000000
21
-71.196152
31
0.0
0
LINE
8
PARTS
10
-3.000000
20
-71.196152
30
0.0
11
-2.296101
21
-71.543277
31
0.0
0
LINE
8
PARTS
10
-2.296101
20
-71.543277
30
0.0
11
-1.552914
21
-71.795555
31
0.0
0
LINE
8
PARTS
10
-1.552914
20
-71.795555
30
0.0
11
-0.783157
21
-71.948669
31
0.0
0
LINE
8
PARTS
10
-0.783157
20
-71.948669
30
0.0
11
-0.000000
21
-72.000000
31
0.0
0
LINE
8
PARTS
10
-0.000000
20
-72.000000
30
0.0
11
56.093777
21
-72.000000
31
0.0
0
CIRCLE
8
HOLES
10
0.000000
20
-66.000000
30
0.0
40
4.000000
0
CIRCLE
8
HOLES
10
56.093777
20
-66.000000
30
0.0
40
4.000000
0
LINE
8
PARTS
10
40.961139
20
-94.000000
30
0.0
11
41.744296
21
-93.948669
31
0.0
0
LINE
8
PARTS
10
41.744296
20
-93.948669
30
0.0
11
42.514053
21
-93.795555
31
0.0
0
LINE
8
PARTS
10
42.514053
20
-93.795555
30
0.0
11
43.257239
21
-93.543277
31
0.0
0
LINE
8
PARTS
10
43.257239
20
-93.543277
30
0.0
11
43.961139
21
-93.196152
31
0.0
0
LINE
8
PARTS
10
43.961139
20
-93.196152
30
0.0
11
44.613707
21
-92.760120
31
0.0
0
LINE
8
PARTS
10
44.613707
20
-92.760120
30
0.0
11
45.203779
21
-92.242641
31
0.0
0
LINE
8
PARTS
10
45.203779
20
-92.242641
30
0.0
11
45.721259
21
-91.652569
31
0.0
0
LINE
8
PARTS
10
45.721259
20
-91.652569
30
0.0
11
46.157291
21
-91.000000
31
0.0
0
LINE
8
PARTS
10
46.157291
20
-91.000000
30
0.0
11
46.504416
21
-90.296101
31
0.0
0
LINE
8
PARTS
10
46.504416
20
-90.296101
30
0.0
11
46.756694
21
-89.552914
31
0.0
0
LINE
8
PARTS
10
46.756694
20
-89.552914
30
0.0
11
46.909808
21
-88.783157
31
0.0
0
LINE
8
PARTS
10
46.909808
20
-88.783157
30
0.0
11
46.961139
21
-88.000000
31
0.0
0
LINE
8
PARTS
10
46.961139
20
-88.000000
30
0.0
11
46.909808
21
-87.216843
31
0.0
0
LINE
8
PARTS
10
46.909808
20
-87.216843
30
0.0
11
46.756694
21
-86.447086
31
0.0
0
LINE
8
PARTS
10
46.756694
20
-86.447086
30
0.0
11
46.504416
21
-85.703899
31
0.0
0
LINE
8
PARTS
10
46.504416
20
-85.703899
30
0.0
11
46.157291
21
-85.000000
31
0.0
0
LINE
8
PARTS
10
46.157291
20
-85.000000
30
0.0
11
45.721259
21
-84.347431
31
0.0
0
LINE
8
PARTS
10
45.721259
20
-84.347431
30
0.0
11
45.203779
21
-83.757359
31
0.0
0
LINE
8
PARTS
10
45.203779
20
-83.757359
30
0.0
11
44.613707
21
-83.239880
31
0.0
0
LINE
8
PARTS
10
44.613707
20
-83.239880
30
0.0
11
43.961139
21
-82.803848
31
0.0
0
LINE
8
PARTS
10
43.961139
20
-82.803848
30
0.0
11
43.257239
21
-82.456723
31
0.0
0
LINE
8
PARTS
10
43.257239
20
-82.456723
30
0.0
11
42.514053
21
-82.204445
31
0.0
0
LINE
8
PARTS
10
42.514053
20
-82.204445
30
0.0
11
41.744296
21
-82.051331
31
0.0
0
LINE
8
PARTS
10
41.744296
20
-82.051331
30
0.0
11
40.961139
21
-82.000000
31
0.0
0
LINE
8
PARTS
10
40.961139
20
-82.000000
30
0.0
11
-0.000000
21
-82.000000
31
0.0
0
LINE
8
PARTS
10
-0.000000
20
-82.000000
30
0.0
11
-0.783157
21
-82.051331
31
0.0
0
LINE
8
PARTS
10
-0.783157
20
-82.051331
30
0.0
11
-1.552914
21
-82.204445
31
0.0
0
LINE
8
PARTS
10
-1.552914
20
-82.204445
30
0.0
11
-2.296101
21
-82.456723
31
0.0
0
LINE
8
PARTS
10
-2.296101
20
-82.456723
30
0.0
11
-3.000000
21
-82.803848
31
0.0
0
LINE
8
PARTS
10
-3.000000
20
-82.803848
30
0.0
11
-3.652569
21
-83.239880
31
0.0
0
LINE
8
PARTS
10
-3.652569
20
-83.239880
30
0.0
11
-4.242641
21
-83.757359
31
0.0
0
LINE
8
PARTS
10
-4.242641
20
-83.757359
30
0.0
11
-4.760120
21
-84.347431
31
0.0
0
LINE
8
PARTS
10
-4.760120
20
-84.347431
30
0.0
11
-5.196152
21
-85.000000
31
0.0
0
LINE
8
PARTS
10
-5.196152
20
-85.000000
30
0.0
11
-5.543277
21
-85.703899
31
0.0
0
LINE
8
PARTS
10
-5.543277
20
-85.703899
30
0.0
11
-5.795555
21
-86.447086
31
0.0
0
LINE
8
PARTS
10
-5.795555
20
-86.447086
30
0.0
11
-5.948669
21
-87.216843
31
0.0
0
LINE
8
PARTS
10
-5.948669
20
-87.216843
30
0.0
11
-6.000000
21
-88.000000
31
0.0
0
LINE
8
PARTS
10
-6.000000
20
-88.000000
30
0.0
11
-5.948669
21
-88.783157
31
0.0
0
LINE
8
PARTS
10
-5.948669
20
-88.783157
30
0.0
11
-5.795555
21
-89.552914
31
0.0
0
LINE
8
PARTS
10
-5.795555
20
-89.552914
30
0.0
11
-5.543277
21
-90.296101
31
0.0
0
LINE
8
PARTS
10
-5.543277
20
-90.296101
30
0.0
11
-5.196152
21
-91.000000
31
0.0
0
LINE
8
PARTS
10
-5.196152
20
-91.000000
30
0.0
11
-4.760120
21
-91.652569
31
0.0
0
LINE
8
PARTS
10
-4.760120
20
-91.652569
30
0.0
11
-4.242641
21
-92.242641
31
0.0
0
LINE
8
PARTS
10
-4.242641
20
-92.242641
30
0.0
11
-3.652569
21
-92.760120
31
0.0
0
LINE
8
PARTS
10
-3.652569
20
-92.760120
30
0.0
11
-3.000000
21
-93.196152
31
0.0
0
LINE
8
PARTS
10
-3.000000
20
-93.196152
30
0.0
11
-2.296101
21
-93.543277
31
0.0
0
LINE
8
PARTS
10
-2.296101
20
-93.543277
30
0.0
11
-1.552914
21
-93.795555
31
0.0
0
LINE
8
PARTS
10
-1.552914
20
-93.795555
30
0.0
11
-0.783157
21
-93.948669
31
0.0
0
LINE
8
PARTS
10
-0.783157
20
-93.948669
30
0.0
11
-0.000000
21
-94.000000
31
0.0
0
LINE
8
PARTS
10
-0.000000
20
-94.000000
30
0.0
11
40.961139
21
-94.000000
31
0.0
0
CIRCLE
8
HOLES
10
0.000000
20
-88.000000
30
0.0
40
4.000000
0
CIRCLE
8
HOLES
10
40.961139
20
-88.000000
30
0.0
40
4.000000
0
LINE
8
PARTS
10
60.835533
20
-116.000000
30
0.0
11
61.618691
21
-115.948669
31
0.0
0
LINE
8
PARTS
10
61.618691
20
-115.948669
30
0.0
11
62.388448
21
-115.795555
31
0.0
0
LINE
8
PARTS
10
62.388448
20
-115.795555
30
0.0
11
63.131634
21
-115.543277
31
0.0
0
LINE
8
PARTS
10
63.131634
20
-115.543277
30
0.0
11
63.835533
21
-115.196152
31
0.0
0
LINE
8
PARTS
10
63.835533
20
-115.196152
30
0.0
11
64.488102
21
-114.760120
31
0.0
0
LINE
8
PARTS
10
64.488102
20
-114.760120
30
0.0
11
65.078174
21
-114.242641
31
0.0
0
LINE
8
PARTS
10
65.078174
20
-114.242641
30
0.0
11
65.595654
21
-113.652569
31
0.0
0
LINE
8
PARTS
10
65.595654
20
-113.652569
30
0.0
11
66.031686
21
-113.000000
31
0.0
0
LINE
8
PARTS
10
66.031686
20
-113.000000
30
0.0
11
66.378811
21
-112.296101
31
0.0
0
LINE
8
PARTS
10
66.378811
20
-112.296101
30
0.0
11
66.631088
21
-111.552914
31
0.0
0
LINE
8
PARTS
10
66.631088
20
-111.552914
30
0.0
11
66.784203
21
-110.783157
31
0.0
0
LINE
8
PARTS
10
66.784203
20
-110.783157
30
0.0
11
66.835533
21
-110.000000
31
0.0
0
LINE
8
PARTS
10
66.835533
20
-110.000000
30
0.0
11
66.784203
21
-109.216843
31
0.0
0
LINE
8
PARTS
10
66.784203
20
-109.216843
30
0.0
11
66.631088
21
-108.447086
31
0.0
0
LINE
8
PARTS
10
66.631088
20
-108.447086
30
0.0
11
66.378811
21
-107.703899
31
0.0
0
LINE
8
PARTS
10
66.378811
20
-107.703899
30
0.0
11
66.031686
21
-107.000000
31
0.0
0
LINE
8
PARTS
10
66.031686
20
-107.000000
30
0.0
11
65.595654
21
-106.347431
31
0.0
0
LINE
8
PARTS
10
65.595654
20
-106.347431
30
0.0
11
65.078174
21
-105.757359
31
0.0
0
LINE
8
PARTS
10
65.078174
20
-105.757359
30
0.0
11
64.488102
21
-105.239880
31
0.0
0
LINE
8
PARTS
10
64.488102
20
-105.239880
30
0.0
11
63.835533
21
-104.803848
31
0.0
0
LINE
8
PARTS
10
63.835533
20
-104.803848
30
0.0
11
63.131634
21
-104.456723
31
0.0
0
LINE
8
PARTS
10
63.131634
20
-104.456723
30
0.0
11
62.388448
21
-104.204445
31
0.0
0
LINE
8
PARTS
10
62.388448
20
-104.204445
30
0.0
11
61.618691
21
-104.051331
31
0.0
0
LINE
8
PARTS
10
61.618691
20
-104.051331
30
0.0
11
60.835533
21
-104.000000
31
0.0
0
LINE
8
PARTS
10
60.835533
20
-104.000000
30
0.0
11
-0.000000
21
-104.000000
31
0.0
0
LINE
8
PARTS
10
-0.000000
20
-104.000000
30
0.0
11
-0.783157
21
-104.051331
31
0.0
0
LINE
8
PARTS
10
-0.783157
20
-104.051331
30
0.0
11
-1.552914
21
-104.204445
31
0.0
0
LINE
8
PARTS
10
-1.552914
20
-104.204445
30
0.0
11
-2.296101
21
-104.456723
31
0.0
0
LINE
8
PARTS
10
-2.296101
20
-104.456723
30
0.0
11
-3.000000
21
-104.803848
31
0.0
0
LINE
8
PARTS
10
-3.000000
20
-104.803848
30
0.0
11
-3.652569
21
-105.239880
31
0.0
0
LINE
8
PARTS
10
-3.652569
20
-105.239880
30
0.0
11
-4.242641
21
-105.757359
31
0.0
0
LINE
8
PARTS
10
-4.242641
20
-105.757359
30
0.0
11
-4.760120
21
-106.347431
31
0.0
0
LINE
8
PARTS
10
-4.760120
20
-106.347431
30
0.0
11
-5.196152
21
-107.000000
31
0.0
0
LINE
8
PARTS
10
-5.196152
20
-107.000000
30
0.0
11
-5.543277
21
-107.703899
31
0.0
0
LINE
8
PARTS
10
-5.543277
20
-107.703899
30
0.0
11
-5.795555
21
-108.447086
31
0.0
0
LINE
8
PARTS
10
-5.795555
20
-108.447086
30
0.0
11
-5.948669
21
-109.216843
31
0.0
0
LINE
8
PARTS
10
-5.948669
20
-109.216843
30
0.0
11
-6.000000
21
-110.000000
31
0.0
0
LINE
8
PARTS
10
-6.000000
20
-110.000000
30
0.0
11
-5.948669
21
-110.783157
31
0.0
0
LINE
8
PARTS
10
-5.948669
20
-110.783157
30
0.0
11
-5.795555
21
-111.552914
31
0.0
0
LINE
8
PARTS
10
-5.795555
20
-111.552914
30
0.0
11
-5.543277
21
-112.296101
31
0.0
0
LINE
8
PARTS
10
-5.543277
20
-112.296101
30
0.0
11
-5.196152
21
-113.000000
31
0.0
0
LINE
8
PARTS
10
-5.196152
20
-113.000000
30
0.0
11
-4.760120
21
-113.652569
31
0.0
0
LINE
8
PARTS
10
-4.760120
20
-113.652569
30
0.0
11
-4.242641
21
-114.242641
31
0.0
0
LINE
8
PARTS
10
-4.242641
20
-114.242641
30
0.0
11
-3.652569
21
-114.760120
31
0.0
0
LINE
8
PARTS
10
-3.652569
20
-114.760120
30
0.0
11
-3.000000
21
-115.196152
31
0.0
0
LINE
8
PARTS
10
-3.000000
20
-115.196152
30
0.0
11
-2.296101
21
-115.543277
31
0.0
0
LINE
8
PARTS
10
-2.296101
20
-115.543277
30
0.0
11
-1.552914
21
-115.795555
31
0.0
0
LINE
8
PARTS
10
-1.552914
20
-115.795555
30
0.0
11
-0.783157
21
-115.948669
31
0.0
0
LINE
8
PARTS
10
-0.783157
20
-115.948669
30
0.0
11
-0.000000
21
-116.000000
31
0.0
0
LINE
8
PARTS
10
-0.000000
20
-116.000000
30
0.0
11
60.835533
21
-116.000000
31
0.0
0
CIRCLE
8
HOLES
10
0.000000
20
-110.000000
30
0.0
40
4.000000
0
CIRCLE
8
HOLES
10
60.835533
20
-110.000000
30
0.0
40
4.000000
0
LINE
8
PARTS
10
38.704701
20
-138.000000
30
0.0
11
39.487858
21
-137.948669
31
0.0
0
LINE
8
PARTS
10
39.487858
20
-137.948669
30
0.0
11
40.257615
21
-137.795555
31
0.0
0
LINE
8
PARTS
10
40.257615
20
-137.795555
30
0.0
11
41.000802
21
-137.543277
31
0.0
0
LINE
8
PARTS
10
41.000802
20
-137.543277
30
0.0
11
41.704701
21
-137.196152
31
0.0
0
LINE
8
PARTS
10
41.704701
20
-137.196152
30
0.0
11
42.357270
21
-136.760120
31
0.0
0
LINE
8
PARTS
10
42.357270
20
-136.760120
30
0.0
11
42.947342
21
-136.242641
31
0.0
0
LINE
8
PARTS
10
42.947342
20
-136.242641
30
0.0
11
43.464821
21
-135.652569
31
0.0
0
LINE
8
PARTS
10
43.464821
20
-135.652569
30
0.0
11
43.900853
21
-135.000000
31
0.0
0
LINE
8
PARTS
10
43.900853
20
-135.000000
30
0.0
11
44.247978
21
-134.296101
31
0.0
0
LINE
8
PARTS
10
44.247978
20
-134.296101
30
0.0
11
44.500256
21
-133.552914
31
0.0
0
LINE
8
PARTS
10
44.500256
20
-133.552914
30
0.0
11
44.653370
21
-132.783157
31
0.0
0
LINE
8
PARTS
10
44.653370
20
-132.783157
30
0.0
11
44.704701
21
-132.000000
31
0.0
0
LINE
8
PARTS
10
44.704701
20
-132.000000
30
0.0
11
44.653370
21
-131.216843
31
0.0
0
LINE
8
PARTS
10
44.653370
20
-131.216843
30
0.0
11
44.500256
21
-130.447086
31
0.0
0
LINE
8
PARTS
10
44.500256
20
-130.447086
30
0.0
11
44.247978
21
-129.703899
31
0.0
0
LINE
8
PARTS
10
44.247978
20
-129.703899
30
0.0
11
43.900853
21
-129.000000
31
0.0
0
LINE
8
PARTS
10
43.900853
20
-129.000000
30
0.0
11
43.464821
21
-128.347431
31
0.0
0
LINE
8
PARTS
10
43.464821
20
-128.347431
30
0.0
11
42.947342
21
-127.757359
31
0.0
0
LINE
8
PARTS
10
42.947342
20
-127.757359
30
0.0
11
42.357270
21
-127.239880
31
0.0
0
LINE
8
PARTS
10
42.357270
20
-127.239880
30
0.0
11
41.704701
21
-126.803848
31
0.0
0
LINE
8
PARTS
10
41.704701
20
-126.803848
30
0.0
11
41.000802
21
-126.456723
31
0.0
0
LINE
8
PARTS
10
41.000802
20
-126.456723
30
0.0
11
40.257615
21
-126.204445
31
0.0
0
LINE
8
PARTS
10
40.257615
20
-126.204445
30
0.0
11
39.487858
21
-126.051331
31
0.0
0
LINE
8
PARTS
10
39.487858
20
-126.051331
30
0.0
11
38.704701
21
-126.000000
31
0.0
0
LINE
8
PARTS
10
38.704701
20
-126.000000
30
0.0
11
-0.000000
21
-126.000000
31
0.0
0
LINE
8
PARTS
10
-0.000000
20
-126.000000
30
0.0
11
-0.783157
21
-126.051331
31
0.0
0
LINE
8
PARTS
10
-0.783157
20
-126.051331
30
0.0
11
-1.552914
21
-126.204445
31
0.0
0
LINE
8
PARTS
10
-1.552914
20
-126.204445
30
0.0
11
-2.296101
21
-126.456723
31
0.0
0
LINE
8
PARTS
10
-2.296101
20
-126.456723
30
0.0
11
-3.000000
21
-126.803848
31
0.0
0
LINE
8
PARTS
10
-3.000000
20
-126.803848
30
0.0
11
-3.652569
21
-127.239880
31
0.0
0
LINE
8
PARTS
10
-3.652569
20
-127.239880
30
0.0
11
-4.242641
21
-127.757359
31
0.0
0
LINE
8
PARTS
10
-4.242641
20
-127.757359
30
0.0
11
-4.760120
21
-128.347431
31
0.0
0
LINE
8
PARTS
10
-4.760120
20
-128.347431
30
0.0
11
-5.196152
21
-129.000000
31
0.0
0
LINE
8
PARTS
10
-5.196152
20
-129.000000
30
0.0
11
-5.543277
21
-129.703899
31
0.0
0
LINE
8
PARTS
10
-5.543277
20
-129.703899
30
0.0
11
-5.795555
21
-130.447086
31
0.0
0
LINE
8
PARTS
10
-5.795555
20
-130.447086
30
0.0
11
-5.948669
21
-131.216843
31
0.0
0
LINE
8
PARTS
10
-5.948669
20
-131.216843
30
0.0
11
-6.000000
21
-132.000000
31
0.0
0
LINE
8
PARTS
10
-6.000000
20
-132.000000
30
0.0
11
-5.948669
21
-132.783157
31
0.0
0
LINE
8
PARTS
10
-5.948669
20
-132.783157
30
0.0
11
-5.795555
21
-133.552914
31
0.0
0
LINE
8
PARTS
10
-5.795555
20
-133.552914
30
0.0
11
-5.543277
21
-134.296101
31
0.0
0
LINE
8
PARTS
10
-5.543277
20
-134.296101
30
0.0
11
-5.196152
21
-135.000000
31
0.0
0
LINE
8
PARTS
10
-5.196152
20
-135.000000
30
0.0
11
-4.760120
21
-135.652569
31
0.0
0
LINE
8
PARTS
10
-4.760120
20
-135.652569
30
0.0
11
-4.242641
21
-136.242641
31
0.0
0
LINE
8
PARTS
10
-4.242641
20
-136.242641
30
0.0
11
-3.652569
21
-136.760120
31
0.0
0
LINE
8
PARTS
10
-3.652569
20
-136.760120
30
0.0
11
-3.000000
21
-137.196152
31
0.0
0
LINE
8
PARTS
10
-3.000000
20
-137.196152
30
0.0
11
-2.296101
21
-137.543277
31
0.0
0
LINE
8
PARTS
10
-2.296101
20
-137.543277
30
0.0
11
-1.552914
21
-137.795555
31
0.0
0
LINE
8
PARTS
10
-1.552914
20
-137.795555
30
0.0
11
-0.783157
21
-137.948669
31
0.0
0
LINE
8
PARTS
10
-0.783157
20
-137.948669
30
0.0
11
-0.000000
21
-138.000000
31
0.0
0
LINE
8
PARTS
10
-0.000000
20
-138.000000
30
0.0
11
38.704701
21
-138.000000
31
0.0
0
CIRCLE
8
HOLES
10
0.000000
20
-132.000000
30
0.0
40
4.000000
0
CIRCLE
8
HOLES
10
38.704701
20
-132.000000
30
0.0
40
4.000000
0
LINE
8
PARTS
10
40.468886
20
-160.000000
30
0.0
11
41.252044
21
-159.948669
31
0.0
0
LINE
8
PARTS
10
41.252044
20
-159.948669
30
0.0
11
42.021801
21
-159.795555
31
0.0
0
LINE
8
PARTS
10
42.021801
20
-159.795555
30
0.0
11
42.764987
21
-159.543277
31
0.0
0
LINE
8
PARTS
10
42.764987
20
-159.543277
30
0.0
11
43.468886
21
-159.196152
31
0.0
0
LINE
8
PARTS
10
43.468886
20
-159.196152
30
0.0
11
44.121455
21
-158.760120
31
0.0
0
LINE
8
PARTS
10
44.121455
20
-158.760120
30
0.0
11
44.711527
21
-158.242641
31
0.0
0
LINE
8
PARTS
10
44.711527
20
-158.242641
30
0.0
11
45.229006
21
-157.652569
31
0.0
0
LINE
8
PARTS
10
45.229006
20
-157.652569
30
0.0
11
45.665039
21
-157.000000
31
0.0
0
LINE
8
PARTS
10
45.665039
20
-157.000000
30
0.0
11
46.012164
21
-156.296101
31
0.0
0
LINE
8
PARTS
10
46.012164
20
-156.296101
30
0.0
11
46.264441
21
-155.552914
31
0.0
0
LINE
8
PARTS
10
46.264441
20
-155.552914
30
0.0
11
46.417556
21
-154.783157
31
0.0
0
LINE
8
PARTS
10
46.417556
20
-154.783157
30
0.0
11
46.468886
21
-154.000000
31
0.0
0
LINE
8
PARTS
10
46.468886
20
-154.000000
30
0.0
11
46.417556
21
-153.216843
31
0.0
0
LINE
8
PARTS
10
46.417556
20
-153.216843
30
0.0
11
46.264441
21
-152.447086
31
0.0
0
LINE
8
PARTS
10
46.264441
20
-152.447086
30
0.0
11
46.012164
21
-151.703899
31
0.0
0
LINE
8
PARTS
10
46.012164
20
-151.703899
30
0.0
11
45.665039
21
-151.000000
31
0.0
0
LINE
8
PARTS
10
45.665039
20
-151.000000
30
0.0
11
45.229006
21
-150.347431
31
0.0
0
LINE
8
PARTS
10
45.229006
20
-150.347431
30
0.0
11
44.711527
21
-149.757359
31
0.0
0
LINE
8
PARTS
10
44.711527
20
-149.757359
30
0.0
11
44.121455
21
-149.239880
31
0.0
0
LINE
8
PARTS
10
44.121455
20
-149.239880
30
0.0
11
43.468886
21
-148.803848
31
0.0
0
LINE
8
PARTS
10
43.468886
20
-148.803848
30
0.0
11
42.764987
21
-148.456723
31
0.0
0
LINE
8
PARTS
10
42.764987
20
-148.456723
30
0.0
11
42.021801
21
-148.204445
31
0.0
0
LINE
8
PARTS
10
42.021801
20
-148.204445
30
0.0
11
41.252044
21
-148.051331
31
0.0
0
LINE
8
PARTS
10
41.252044
20
-148.051331
30
0.0
11
40.468886
21
-148.000000
31
0.0
0
LINE
8
PARTS
10
40.468886
20
-148.000000
30
0.0
11
-0.000000
21
-148.000000
31
0.0
0
LINE
8
PARTS
10
-0.000000
20
-148.000000
30
0.0
11
-0.783157
21
-148.051331
31
0.0
0
LINE
8
PARTS
10
-0.783157
20
-148.051331
30
0.0
11
-1.552914
21
-148.204445
31
0.0
0
LINE
8
PARTS
10
-1.552914
20
-148.204445
30
0.0
11
-2.296101
21
-148.456723
31
0.0
0
LINE
8
PARTS
10
-2.296101
20
-148.456723
30
0.0
11
-3.000000
21
-148.803848
31
0.0
0
LINE
8
PARTS
10
-3.000000
20
-148.803848
30
0.0
11
-3.652569
21
-149.239880
31
0.0
0
LINE
8
PARTS
10
-3.652569
20
-149.239880
30
0.0
11
-4.242641
21
-149.757359
31
0.0
0
LINE
8
PARTS
10
-4.242641
20
-149.757359
30
0.0
11
-4.760120
21
-150.347431
31
0.0
0
LINE
8
PARTS
10
-4.760120
20
-150.347431
30
0.0
11
-5.196152
21
-151.000000
31
0.0
0
LINE
8
PARTS
10
-5.196152
20
-151.000000
30
0.0
11
-5.543277
21
-151.703899
31
0.0
0
LINE
8
PARTS
10
-5.543277
20
-151.703899
30
0.0
11
-5.795555
21
-152.447086
31
0.0
0
LINE
8
PARTS
10
-5.795555
20
-152.447086
30
0.0
11
-5.948669
21
-153.216843
31
0.0
0
LINE
8
PARTS
10
-5.948669
20
-153.216843
30
0.0
11
-6.000000
21
-154.000000
31
0.0
0
LINE
8
PARTS
10
-6.000000
20
-154.000000
30
0.0
11
-5.948669
21
-154.783157
31
0.0
0
LINE
8
PARTS
10
-5.948669
20
-154.783157
30
0.0
11
-5.795555
21
-155.552914
31
0.0
0
LINE
8
PARTS
10
-5.795555
20
-155.552914
30
0.0
11
-5.543277
21
-156.296101
31
0.0
0
LINE
8
PARTS
10
-5.543277
20
-156.296101
30
0.0
11
-5.196152
21
-157.000000
31
0.0
0
LINE
8
PARTS
10
-5.196152
20
-157.000000
30
0.0
11
-4.760120
21
-157.652569
31
0.0
0
LINE
8
PARTS
10
-4.760120
20
-157.652569
30
0.0
11
-4.242641
21
-158.242641
31
0.0
0
LINE
8
PARTS
10
-4.242641
20
-158.242641
30
0.0
11
-3.652569
21
-158.760120
31
0.0
0
LINE
8
PARTS
10
-3.652569
20
-158.760120
30
0.0
11
-3.000000
21
-159.196152
31
0.0
0
LINE
8
PARTS
10
-3.000000
20
-159.196152
30
0.0
11
-2.296101
21
-159.543277
31
0.0
0
LINE
8
PARTS
10
-2.296101
20
-159.543277
30
0.0
11
-1.552914
21
-159.795555
31
0.0
0
LINE
8
PARTS
10
-1.552914
20
-159.795555
30
0.0
11
-0.783157
21
-159.948669
31
0.0
0
LINE
8
PARTS
10
-0.783157
20
-159.948669
30
0.0
11
-0.000000
21
-160.000000
31
0.0
0
LINE
8
PARTS
10
-0.000000
20
-160.000000
30
0.0
11
40.468886
21
-160.000000
31
0.0
0
CIRCLE
8
HOLES
10
0.000000
20
-154.000000
30
0.0
40
4.000000
0
CIRCLE
8
HOLES
10
40.468886
20
-154.000000
30
0.0
40
4.000000
0
LINE
8
PARTS
10
39.671193
20
-182.000000
30
0.0
11
40.454350
21
-181.948669
31
0.0
0
LINE
8
PARTS
10
40.454350
20
-181.948669
30
0.0
11
41.224107
21
-181.795555
31
0.0
0
LINE
8
PARTS
10
41.224107
20
-181.795555
30
0.0
11
41.967293
21
-181.543277
31
0.0
0
LINE
8
PARTS
10
41.967293
20
-181.543277
30
0.0
11
42.671193
21
-181.196152
31
0.0
0
LINE
8
PARTS
10
42.671193
20
-181.196152
30
0.0
11
43.323761
21
-180.760120
31
0.0
0
LINE
8
PARTS
10
43.323761
20
-180.760120
30
0.0
11
43.913834
21
-180.242641
31
0.0
0
LINE
8
PARTS
10
43.913834
20
-180.242641
30
0.0
11
44.431313
21
-179.652569
31
0.0
0
LINE
8
PARTS
10
44.431313
20
-179.652569
30
0.0
11
44.867345
21
-179.000000
31
0.0
0
LINE
8
PARTS
10
44.867345
20
-179.000000
30
0.0
11
45.214470
21
-178.296101
31
0.0
0
LINE
8
PARTS
10
45.214470
20
-178.296101
30
0.0
11
45.466748
21
-177.552914
31
0.0
0
LINE
8
PARTS
10
45.466748
20
-177.552914
30
0.0
11
45.619862
21
-176.783157
31
0.0
0
LINE
8
PARTS
10
45.619862
20
-176.783157
30
0.0
11
45.671193
21
-176.000000
31
0.0
0
LINE
8
PARTS
10
45.671193
20
-176.000000
30
0.0
11
45.619862
21
-175.216843
31
0.0
0
LINE
8
PARTS
10
45.619862
20
-175.216843
30
0.0
11
45.466748
21
-174.447086
31
0.0
0
LINE
8
PARTS
10
45.466748
20
-174.447086
30
0.0
11
45.214470
21
-173.703899
31
0.0
0
LINE
8
PARTS
10
45.214470
20
-173.703899
30
0.0
11
44.867345
21
-173.000000
31
0.0
0
LINE
8
PARTS
10
44.867345
20
-173.000000
30
0.0
11
44.431313
21
-172.347431
31
0.0
0
LINE
8
PARTS
10
44.431313
20
-172.347431
30
0.0
11
43.913834
21
-171.757359
31
0.0
0
LINE
8
PARTS
10
43.913834
20
-171.757359
30
0.0
11
43.323761
21
-171.239880
31
0.0
0
LINE
8
PARTS
10
43.323761
20
-171.239880
30
0.0
11
42.671193
21
-170.803848
31
0.0
0
LINE
8
PARTS
10
42.671193
20
-170.803848
30
0.0
11
41.967293
21
-170.456723
31
0.0
0
LINE
8
PARTS
10
41.967293
20
-170.456723
30
0.0
11
41.224107
21
-170.204445
31
0.0
0
LINE
8
PARTS
10
41.224107
20
-170.204445
30
0.0
11
40.454350
21
-170.051331
31
0.0
0
LINE
8
PARTS
10
40.454350
20
-170.051331
30
0.0
11
39.671193
21
-170.000000
31
0.0
0
LINE
8
PARTS
10
39.671193
20
-170.000000
30
0.0
11
-0.000000
21
-170.000000
31
0.0
0
LINE
8
PARTS
10
-0.000000
20
-170.000000
30
0.0
11
-0.783157
21
-170.051331
31
0.0
0
LINE
8
PARTS
10
-0.783157
20
-170.051331
30
0.0
11
-1.552914
21
-170.204445
31
0.0
0
LINE
8
PARTS
10
-1.552914
20
-170.204445
30
0.0
11
-2.296101
21
-170.456723
31
0.0
0
LINE
8
PARTS
10
-2.296101
20
-170.456723
30
0.0
11
-3.000000
21
-170.803848
31
0.0
0
LINE
8
PARTS
10
-3.000000
20
-170.803848
30
0.0
11
-3.652569
21
-171.239880
31
0.0
0
LINE
8
PARTS
10
-3.652569
20
-171.239880
30
0.0
11
-4.242641
21
-171.757359
31
0.0
0
LINE
8
PARTS
10
-4.242641
20
-171.757359
30
0.0
11
-4.760120
21
-172.347431
31
0.0
0
LINE
8
PARTS
10
-4.760120
20
-172.347431
30
0.0
11
-5.196152
21
-173.000000
31
0.0
0
LINE
8
PARTS
10
-5.196152
20
-173.000000
30
0.0
11
-5.543277
21
-173.703899
31
0.0
0
LINE
8
PARTS
10
-5.543277
20
-173.703899
30
0.0
11
-5.795555
21
-174.447086
31
0.0
0
LINE
8
PARTS
10
-5.795555
20
-174.447086
30
0.0
11
-5.948669
21
-175.216843
31
0.0
0
LINE
8
PARTS
10
-5.948669
20
-175.216843
30
0.0
11
-6.000000
21
-176.000000
31
0.0
0
LINE
8
PARTS
10
-6.000000
20
-176.000000
30
0.0
11
-5.948669
21
-176.783157
31
0.0
0
LINE
8
PARTS
10
-5.948669
20
-176.783157
30
0.0
11
-5.795555
21
-177.552914
31
0.0
0
LINE
8
PARTS
10
-5.795555
20
-177.552914
30
0.0
11
-5.543277
21
-178.296101
31
0.0
0
LINE
8
PARTS
10
-5.543277
20
-178.296101
30
0.0
11
-5.196152
21
-179.000000
31
0.0
0
LINE
8
PARTS
10
-5.196152
20
-179.000000
30
0.0
11
-4.760120
21
-179.652569
31
0.0
0
LINE
8
PARTS
10
-4.760120
20
-179.652569
30
0.0
11
-4.242641
21
-180.242641
31
0.0
0
LINE
8
PARTS
10
-4.242641
20
-180.242641
30
0.0
11
-3.652569
21
-180.760120
31
0.0
0
LINE
8
PARTS
10
-3.652569
20
-180.760120
30
0.0
11
-3.000000
21
-181.196152
31
0.0
0
LINE
8
PARTS
10
-3.000000
20
-181.196152
30
0.0
11
-2.296101
21
-181.543277
31
0.0
0
LINE
8
PARTS
10
-2.296101
20
-181.543277
30
0.0
11
-1.552914
21
-181.795555
31
0.0
0
LINE
8
PARTS
10
-1.552914
20
-181.795555
30
0.0
11
-0.783157
21
-181.948669
31
0.0
0
LINE
8
PARTS
10
-0.783157
20
-181.948669
30
0.0
11
-0.000000
21
-182.000000
31
0.0
0
LINE
8
PARTS
10
-0.000000
20
-182.000000
30
0.0
11
39.671193
21
-182.000000
31
0.0
0
CIRCLE
8
HOLES
10
0.000000
20
-176.000000
30
0.0
40
4.000000
0
CIRCLE
8
HOLES
10
39.671193
20
-176.000000
30
0.0
40
4.000000
0
LINE
8
PARTS
10
48.910311
20
-204.000000
30
0.0
11
49.693468
21
-203.948669
31
0.0
0
LINE
8
PARTS
10
49.693468
20
-203.948669
30
0.0
11
50.463225
21
-203.795555
31
0.0
0
LINE
8
PARTS
10
50.463225
20
-203.795555
30
0.0
11
51.206411
21
-203.543277
31
0.0
0
LINE
8
PARTS
10
51.206411
20
-203.543277
30
0.0
11
51.910311
21
-203.196152
31
0.0
0
LINE
8
PARTS
10
51.910311
20
-203.196152
30
0.0
11
52.562879
21
-202.760120
31
0.0
0
LINE
8
PARTS
10
52.562879
20
-202.760120
30
0.0
11
53.152951
21
-202.242641
31
0.0
0
LINE
8
PARTS
10
53.152951
20
-202.242641
30
0.0
11
53.670431
21
-201.652569
31
0.0
0
LINE
8
PARTS
10
53.670431
20
-201.652569
30
0.0
11
54.106463
21
-201.000000
31
0.0
0
LINE
8
PARTS
10
54.106463
20
-201.000000
30
0.0
11
54.453588
21
-200.296101
31
0.0
0
LINE
8
PARTS
10
54.453588
20
-200.296101
30
0.0
11
54.705866
21
-199.552914
31
0.0
0
LINE
8
PARTS
10
54.705866
20
-199.552914
30
0.0
11
54.858980
21
-198.783157
31
0.0
0
LINE
8
PARTS
10
54.858980
20
-198.783157
30
0.0
11
54.910311
21
-198.000000
31
0.0
0
LINE
8
PARTS
10
54.910311
20
-198.000000
30
0.0
11
54.858980
21
-197.216843
31
0.0
0
LINE
8
PARTS
10
54.858980
20
-197.216843
30
0.0
11
54.705866
21
-196.447086
31
0.0
0
LINE
8
PARTS
10
54.705866
20
-196.447086
30
0.0
11
54.453588
21
-195.703899
31
0.0
0
LINE
8
PARTS
10
54.453588
20
-195.703899
30
0.0
11
54.106463
21
-195.000000
31
0.0
0
LINE
8
PARTS
10
54.106463
20
-195.000000
30
0.0
11
53.670431
21
-194.347431
31
0.0
0
LINE
8
PARTS
10
53.670431
20
-194.347431
30
0.0
11
53.152951
21
-193.757359
31
0.0
0
LINE
8
PARTS
10
53.152951
20
-193.757359
30
0.0
11
52.562879
21
-193.239880
31
0.0
0
LINE
8
PARTS
10
52.562879
20
-193.239880
30
0.0
11
51.910311
21
-192.803848
31
0.0
0
LINE
8
PARTS
10
51.910311
20
-192.803848
30
0.0
11
51.206411
21
-192.456723
31
0.0
0
LINE
8
PARTS
10
51.206411
20
-192.456723
30
0.0
11
50.463225
21
-192.204445
31
0.0
0
LINE
8
PARTS
10
50.463225
20
-192.204445
30
0.0
11
49.693468
21
-192.051331
31
0.0
0
LINE
8
PARTS
10
49.693468
20
-192.051331
30
0.0
11
48.910311
21
-192.000000
31
0.0
0
LINE
8
PARTS
10
48.910311
20
-192.000000
30
0.0
11
-0.000000
21
-192.000000
31
0.0
0
LINE
8
PARTS
10
-0.000000
20
-192.000000
30
0.0
11
-0.783157
21
-192.051331
31
0.0
0
LINE
8
PARTS
10
-0.783157
20
-192.051331
30
0.0
11
-1.552914
21
-192.204445
31
0.0
0
LINE
8
PARTS
10
-1.552914
20
-192.204445
30
0.0
11
-2.296101
21
-192.456723
31
0.0
0
LINE
8
PARTS
10
-2.296101
20
-192.456723
30
0.0
11
-3.000000
21
-192.803848
31
0.0
0
LINE
8
PARTS
10
-3.000000
20
-192.803848
30
0.0
11
-3.652569
21
-193.239880
31
0.0
0
LINE
8
PARTS
10
-3.652569
20
-193.239880
30
0.0
11
-4.242641
21
-193.757359
31
0.0
0
LINE
8
PARTS
10
-4.242641
20
-193.757359
30
0.0
11
-4.760120
21
-194.347431
31
0.0
0
LINE
8
PARTS
10
-4.760120
20
-194.347431
30
0.0
11
-5.196152
21
-195.000000
31
0.0
0
LINE
8
PARTS
10
-5.196152
20
-195.000000
30
0.0
11
-5.543277
21
-195.703899
31
0.0
0
LINE
8
PARTS
10
-5.543277
20
-195.703899
30
0.0
11
-5.795555
21
-196.447086
31
0.0
0
LINE
8
PARTS
10
-5.795555
20
-196.447086
30
0.0
11
-5.948669
21
-197.216843
31
0.0
0
LINE
8
PARTS
10
-5.948669
20
-197.216843
30
0.0
11
-6.000000
21
-198.000000
31
0.0
0
LINE
8
PARTS
10
-6.000000
20
-198.000000
30
0.0
11
-5.948669
21
-198.783157
31
0.0
0
LINE
8
PARTS
10
-5.948669
20
-198.783157
30
0.0
11
-5.795555
21
-199.552914
31
0.0
0
LINE
8
PARTS
10
-5.795555
20
-199.552914
30
0.0
11
-5.543277
21
-200.296101
31
0.0
0
LINE
8
PARTS
10
-5.543277
20
-200.296101
30
0.0
11
-5.196152
21
-201.000000
31
0.0
0
LINE
8
PARTS
10
-5.196152
20
-201.000000
30
0.0
11
-4.760120
21
-201.652569
31
0.0
0
LINE
8
PARTS
10
-4.760120
20
-201.652569
30
0.0
11
-4.242641
21
-202.242641
31
0.0
0
LINE
8
PARTS
10
-4.242641
20
-202.242641
30
0.0
11
-3.652569
21
-202.760120
31
0.0
0
LINE
8
PARTS
10
-3.652569
20
-202.760120
30
0.0
11
-3.000000
21
-203.196152
31
0.0
0
LINE
8
PARTS
10
-3.000000
20
-203.196152
30
0.0
11
-2.296101
21
-203.543277
31
0.0
0
LINE
8
PARTS
10
-2.296101
20
-203.543277
30
0.0
11
-1.552914
21
-203.795555
31
0.0
0
LINE
8
PARTS
10
-1.552914
20
-203.795555
30
0.0
11
-0.783157
21
-203.948669
31
0.0
0
LINE
8
PARTS
10
-0.783157
20
-203.948669
30
0.0
11
-0.000000
21
-204.000000
31
0.0
0
LINE
8
PARTS
10
-0.000000
20
-204.000000
30
0.0
11
48.910311
21
-204.000000
31
0.0
0
CIRCLE
8
HOLES
10
0.000000
20
-198.000000
30
0.0
40
4.000000
0
CIRCLE
8
HOLES
10
48.910311
20
-198.000000
30
0.0
40
4.000000
0
LINE
8
PARTS
10
61.809042
20
-226.000000
30
0.0
11
62.592199
21
-225.948669
31
0.0
0
LINE
8
PARTS
10
62.592199
20
-225.948669
30
0.0
11
63.361957
21
-225.795555
31
0.0
0
LINE
8
PARTS
10
63.361957
20
-225.795555
30
0.0
11
64.105143
21
-225.543277
31
0.0
0
LINE
8
PARTS
10
64.105143
20
-225.543277
30
0.0
11
64.809042
21
-225.196152
31
0.0
0
LINE
8
PARTS
10
64.809042
20
-225.196152
30
0.0
11
65.461611
21
-224.760120
31
0.0
0
LINE
8
PARTS
10
65.461611
20
-224.760120
30
0.0
11
66.051683
21
-224.242641
31
0.0
0
LINE
8
PARTS
10
66.051683
20
-224.242641
30
0.0
11
66.569162
21
-223.652569
31
0.0
0
LINE
8
PARTS
10
66.569162
20
-223.652569
30
0.0
11
67.005195
21
-223.000000
31
0.0
0
LINE
8
PARTS
10
67.005195
20
-223.000000
30
0.0
11
67.352319
21
-222.296101
31
0.0
0
LINE
8
PARTS
10
67.352319
20
-222.296101
30
0.0
11
67.604597
21
-221.552914
31
0.0
0
LINE
8
PARTS
10
67.604597
20
-221.552914
30
0.0
11
67.757711
21
-220.783157
31
0.0
0
LINE
8
PARTS
10
67.757711
20
-220.783157
30
0.0
11
67.809042
21
-220.000000
31
0.0
0
LINE
8
PARTS
10
67.809042
20
-220.000000
30
0.0
11
67.757711
21
-219.216843
31
0.0
0
LINE
8
PARTS
10
67.757711
20
-219.216843
30
0.0
11
67.604597
21
-218.447086
31
0.0
0
LINE
8
PARTS
10
67.604597
20
-218.447086
30
0.0
11
67.352319
21
-217.703899
31
0.0
0
LINE
8
PARTS
10
67.352319
20
-217.703899
30
0.0
11
67.005195
21
-217.000000
31
0.0
0
LINE
8
PARTS
10
67.005195
20
-217.000000
30
0.0
11
66.569162
21
-216.347431
31
0.0
0
LINE
8
PARTS
10
66.569162
20
-216.347431
30
0.0
11
66.051683
21
-215.757359
31
0.0
0
LINE
8
PARTS
10
66.051683
20
-215.757359
30
0.0
11
65.461611
21
-215.239880
31
0.0
0
LINE
8
PARTS
10
65.461611
20
-215.239880
30
0.0
11
64.809042
21
-214.803848
31
0.0
0
LINE
8
PARTS
10
64.809042
20
-214.803848
30
0.0
11
64.105143
21
-214.456723
31
0.0
0
LINE
8
PARTS
10
64.105143
20
-214.456723
30
0.0
11
63.361957
21
-214.204445
31
0.0
0
LINE
8
PARTS
10
63.361957
20
-214.204445
30
0.0
11
62.592199
21
-214.051331
31
0.0
0
LINE
8
PARTS
10
62.592199
20
-214.051331
30
0.0
11
61.809042
21
-214.000000
31
0.0
0
LINE
8
PARTS
10
61.809042
20
-214.000000
30
0.0
11
-0.000000
21
-214.000000
31
0.0
0
LINE
8
PARTS
10
-0.000000
20
-214.000000
30
0.0
11
-0.783157
21
-214.051331
31
0.0
0
LINE
8
PARTS
10
-0.783157
20
-214.051331
30
0.0
11
-1.552914
21
-214.204445
31
0.0
0
LINE
8
PARTS
10
-1.552914
20
-214.204445
30
0.0
11
-2.296101
21
-214.456723
31
0.0
0
LINE
8
PARTS
10
-2.296101
20
-214.456723
30
0.0
11
-3.000000
21
-214.803848
31
0.0
0
LINE
8
PARTS
10
-3.000000
20
-214.803848
30
0.0
11
-3.652569
21
-215.239880
31
0.0
0
LINE
8
PARTS
10
-3.652569
20
-215.239880
30
0.0
11
-4.242641
21
-215.757359
31
0.0
0
LINE
8
PARTS
10
-4.242641
20
-215.757359
30
0.0
11
-4.760120
21
-216.347431
31
0.0
0
LINE
8
PARTS
10
-4.760120
20
-216.347431
30
0.0
11
-5.196152
21
-217.000000
31
0.0
0
LINE
8
PARTS
10
-5.196152
20
-217.000000
30
0.0
11
-5.543277
21
-217.703899
31
0.0
0
LINE
8
PARTS
10
-5.543277
20
-217.703899
30
0.0
11
-5.795555
21
-218.447086
31
0.0
0
LINE
8
PARTS
10
-5.795555
20
-218.447086
30
0.0
11
-5.948669
21
-219.216843
31
0.0
0
LINE
8
PARTS
10
-5.948669
20
-219.216843
30
0.0
11
-6.000000
21
-220.000000
31
0.0
0
LINE
8
PARTS
10
-6.000000
20
-220.000000
30
0.0
11
-5.948669
21
-220.783157
31
0.0
0
LINE
8
PARTS
10
-5.948669
20
-220.783157
30
0.0
11
-5.795555
21
-221.552914
31
0.0
0
LINE
8
PARTS
10
-5.795555
20
-221.552914
30
0.0
11
-5.543277
21
-222.296101
31
0.0
0
LINE
8
PARTS
10
-5.543277
20
-222.296101
30
0.0
11
-5.196152
21
-223.000000
31
0.0
0
LINE
8
PARTS
10
-5.196152
20
-223.000000
30
0.0
11
-4.760120
21
-223.652569
31
0.0
0
LINE
8
PARTS
10
-4.760120
20
-223.652569
30
0.0
11
-4.242641
21
-224.242641
31
0.0
0
LINE
8
PARTS
10
-4.242641
20
-224.242641
30
0.0
11
-3.652569
21
-224.760120
31
0.0
0
LINE
8
PARTS
10
-3.652569
20
-224.760120
30
0.0
11
-3.000000
21
-225.196152
31
0.0
0
LINE
8
PARTS
10
-3.000000
20
-225.196152
30
0.0
11
-2.296101
21
-225.543277
31
0.0
0
LINE
8
PARTS
10
-2.296101
20
-225.543277
30
0.0
11
-1.552914
21
-225.795555
31
0.0
0
LINE
8
PARTS
10
-1.552914
20
-225.795555
30
0.0
11
-0.783157
21
-225.948669
31
0.0
0
LINE
8
PARTS
10
-0.783157
20
-225.948669
30
0.0
11
-0.000000
21
-226.000000
31
0.0
0
LINE
8
PARTS
10
-0.000000
20
-226.000000
30
0.0
11
61.809042
21
-226.000000
31
0.0
0
CIRCLE
8
HOLES
10
0.000000
20
-220.000000
30
0.0
40
4.000000
0
CIRCLE
8
HOLES
10
61.809042
20
-220.000000
30
0.0
40
4.000000
0
ENDSEC
0
EOF
