0
SECTION
2
TABLES
0
TABLE
2
LAYER
70
4
0
LAYER
2
LINKAGE
70
0
62
1
6
CONTINUOUS
0
LAYER
2
PINS
70
0
62
2
6
CONTINUOUS
0
LAYER
2
GROUND
70
0
62
3
6
CONTINUOUS
0
LAYER
2
FOOTPATH
70
0
62
4
6
CONTINUOUS
0
ENDTAB
0
ENDSEC
0
SECTION
2
ENTITIES
0
LINE
8
LINKAGE
10
0.000000
20
0.000000
30
0.0
11
15.000000
21
0.000000
31
0.0
0
LINE
8
LINKAGE
10
15.000000
20
0.000000
30
0.0
11
-26.561985
21
31.152895
31
0.0
0
LINE
8
LINKAGE
10
-38.000000
20
-7.800000
30
0.0
11
-26.561985
21
31.152895
31
0.0
0
LINE
8
LINKAGE
10
-26.561985
20
31.152895
30
0.0
11
-76.621842
21
5.844347
31
0.0
0
LINE
8
LINKAGE
10
-38.000000
20
-7.800000
30
0.0
11
-76.621842
21
5.844347
31
0.0
0
LINE
8
LINKAGE
10
15.000000
20
0.000000
30
0.0
11
-26.279474
21
-44.687439
31
0.0
0
LINE
8
LINKAGE
10
-38.000000
20
-7.800000
30
0.0
11
-26.279474
21
-44.687439
31
0.0
0
LINE
8
LINKAGE
10
-76.621842
20
5.844347
30
0.0
11
-64.073966
21
-32.630081
31
0.0
0
LINE
8
LINKAGE
10
-26.279474
20
-44.687439
30
0.0
11
-64.073966
21
-32.630081
31
0.0
0
LINE
8
LINKAGE
10
-26.279474
20
-44.687439
30
0.0
11
-42.883468
21
-90.693154
31
0.0
0
LINE
8
LINKAGE
10
-64.073966
20
-32.630081
30
0.0
11
-42.883468
21
-90.693154
31
0.0
0
CIRCLE
8
PINS
10
0.000000
20
0.000000
30
0.0
40
4.000000
0
CIRCLE
8
PINS
10
-38.000000
20
-7.800000
30
0.0
40
4.000000
0
CIRCLE
8
PINS
10
15.000000
20
0.000000
30
0.0
40
4.000000
0
CIRCLE
8
PINS
10
-26.561985
20
31.152895
30
0.0
40
4.000000
0
CIRCLE
8
PINS
10
-76.621842
20
5.844347
30
0.0
40
4.000000
0
CIRCLE
8
PINS
10
-26.279474
20
-44.687439
30
0.0
40
4.000000
0
CIRCLE
8
PINS
10
-64.073966
20
-32.630081
30
0.0
40
4.000000
0
CIRCLE
8
PINS
10
-42.883468
20
-90.693154
30
0.0
40
4.000000
0
CIRCLE
8
GROUND
10
0.000000
20
0.000000
30
0.0
40
7.200000
0
CIRCLE
8
GROUND
10
-38.000000
20
-7.800000
30
0.0
40
7.200000
0
LINE
8
FOOTPATH
10
-42.883468
20
-90.693154
30
0.0
11
-42.483107
21
-90.694448
31
0.0
0
LINE
8
FOOTPATH
10
-42.483107
20
-90.694448
30
0.0
11
-42.082366
21
-90.695709
31
0.0
0
LINE
8
FOOTPATH
10
-42.082366
20
-90.695709
30
0.0
11
-41.681262
21
-90.696942
31
0.0
0
LINE
8
FOOTPATH
10
-41.681262
20
-90.696942
30
0.0
11
-41.279817
21
-90.698150
31
0.0
0
LINE
8
FOOTPATH
10
-41.279817
20
-90.698150
30
0.0
11
-40.878050
21
-90.699338
31
0.0
0
LINE
8
FOOTPATH
10
-40.878050
20
-90.699338
30
0.0
11
-40.475979
21
-90.700508
31
0.0
0
LINE
8
FOOTPATH
10
-40.475979
20
-90.700508
30
0.0
11
-40.073625
21
-90.701661
31
0.0
0
LINE
8
FOOTPATH
10
-40.073625
20
-90.701661
30
0.0
11
-39.671007
21
-90.702799
31
0.0
0
LINE
8
FOOTPATH
10
-39.671007
20
-90.702799
30
0.0
11
-39.268145
21
-90.703921
31
0.0
0
LINE
8
FOOTPATH
10
-39.268145
20
-90.703921
30
0.0
11
-38.865057
21
-90.705028
31
0.0
0
LINE
8
FOOTPATH
10
-38.865057
20
-90.705028
30
0.0
11
-38.461765
21
-90.706118
31
0.0
0
LINE
8
FOOTPATH
10
-38.461765
20
-90.706118
30
0.0
11
-38.058287
21
-90.707190
31
0.0
0
LINE
8
FOOTPATH
10
-38.058287
20
-90.707190
30
0.0
11
-37.654645
21
-90.708241
31
0.0
0
LINE
8
FOOTPATH
10
-37.654645
20
-90.708241
30
0.0
11
-37.250860
21
-90.709268
31
0.0
0
LINE
8
FOOTPATH
10
-37.250860
20
-90.709268
30
0.0
11
-36.846951
21
-90.710267
31
0.0
0
LINE
8
FOOTPATH
10
-36.846951
20
-90.710267
30
0.0
11
-36.442941
21
-90.711233
31
0.0
0
LINE
8
FOOTPATH
10
-36.442941
20
-90.711233
30
0.0
11
-36.038851
21
-90.712161
31
0.0
0
LINE
8
FOOTPATH
10
-36.038851
20
-90.712161
30
0.0
11
-35.634705
21
-90.713046
31
0.0
0
LINE
8
FOOTPATH
10
-35.634705
20
-90.713046
30
0.0
11
-35.230524
21
-90.713881
31
0.0
0
LINE
8
FOOTPATH
10
-35.230524
20
-90.713881
30
0.0
11
-34.826334
21
-90.714658
31
0.0
0
LINE
8
FOOTPATH
10
-34.826334
20
-90.714658
30
0.0
11
-34.422157
21
-90.715370
31
0.0
0
LINE
8
FOOTPATH
10
-34.422157
20
-90.715370
30
0.0
11
-34.018020
21
-90.716009
31
0.0
0
LINE
8
FOOTPATH
10
-34.018020
20
-90.716009
30
0.0
11
-33.613948
21
-90.716565
31
0.0
0
LINE
8
FOOTPATH
10
-33.613948
20
-90.716565
30
0.0
11
-33.209967
21
-90.717030
31
0.0
0
LINE
8
FOOTPATH
10
-33.209967
20
-90.717030
30
0.0
11
-32.806106
21
-90.717392
31
0.0
0
LINE
8
FOOTPATH
10
-32.806106
20
-90.717392
30
0.0
11
-32.402391
21
-90.717643
31
0.0
0
LINE
8
FOOTPATH
10
-32.402391
20
-90.717643
30
0.0
11
-31.998854
21
-90.717770
31
0.0
0
LINE
8
FOOTPATH
10
-31.998854
20
-90.717770
30
0.0
11
-31.595524
21
-90.717762
31
0.0
0
LINE
8
FOOTPATH
10
-31.595524
20
-90.717762
30
0.0
11
-31.192433
21
-90.717607
31
0.0
0
LINE
8
FOOTPATH
10
-31.192433
20
-90.717607
30
0.0
11
-30.789612
21
-90.717293
31
0.0
0
LINE
8
FOOTPATH
10
-30.789612
20
-90.717293
30
0.0
11
-30.387097
21
-90.716807
31
0.0
0
LINE
8
FOOTPATH
10
-30.387097
20
-90.716807
30
0.0
11
-29.984921
21
-90.716136
31
0.0
0
LINE
8
FOOTPATH
10
-29.984921
20
-90.716136
30
0.0
11
-29.583120
21
-90.715267
31
0.0
0
LINE
8
FOOTPATH
10
-29.583120
20
-90.715267
30
0.0
11
-29.181733
21
-90.714186
31
0.0
0
LINE
8
FOOTPATH
10
-29.181733
20
-90.714186
30
0.0
11
-28.780797
21
-90.712878
31
0.0
0
LINE
8
FOOTPATH
10
-28.780797
20
-90.712878
30
0.0
11
-28.380352
21
-90.711330
31
0.0
0
LINE
8
FOOTPATH
10
-28.380352
20
-90.711330
30
0.0
11
-27.980441
21
-90.709527
31
0.0
0
LINE
8
FOOTPATH
10
-27.980441
20
-90.709527
30
0.0
11
-27.581106
21
-90.707455
31
0.0
0
LINE
8
FOOTPATH
10
-27.581106
20
-90.707455
30
0.0
11
-27.182391
21
-90.705098
31
0.0
0
LINE
8
FOOTPATH
10
-27.182391
20
-90.705098
30
0.0
11
-26.784342
21
-90.702441
31
0.0
0
LINE
8
FOOTPATH
10
-26.784342
20
-90.702441
30
0.0
11
-26.387007
21
-90.699470
31
0.0
0
LINE
8
FOOTPATH
10
-26.387007
20
-90.699470
30
0.0
11
-25.990435
21
-90.696169
31
0.0
0
LINE
8
FOOTPATH
10
-25.990435
20
-90.696169
30
0.0
11
-25.594677
21
-90.692524
31
0.0
0
LINE
8
FOOTPATH
10
-25.594677
20
-90.692524
30
0.0
11
-25.199785
21
-90.688518
31
0.0
0
LINE
8
FOOTPATH
10
-25.199785
20
-90.688518
30
0.0
11
-24.805814
21
-90.684138
31
0.0
0
LINE
8
FOOTPATH
10
-24.805814
20
-90.684138
30
0.0
11
-24.412819
21
-90.679368
31
0.0
0
LINE
8
FOOTPATH
10
-24.412819
20
-90.679368
30
0.0
11
-24.020858
21
-90.674193
31
0.0
0
LINE
8
FOOTPATH
10
-24.020858
20
-90.674193
30
0.0
11
-23.629992
21
-90.668598
31
0.0
0
LINE
8
FOOTPATH
10
-23.629992
20
-90.668598
30
0.0
11
-23.240282
21
-90.662570
31
0.0
0
LINE
8
FOOTPATH
10
-23.240282
20
-90.662570
30
0.0
11
-22.851792
21
-90.656093
31
0.0
0
LINE
8
FOOTPATH
10
-22.851792
20
-90.656093
30
0.0
11
-22.464587
21
-90.649154
31
0.0
0
LINE
8
FOOTPATH
10
-22.464587
20
-90.649154
30
0.0
11
-22.078735
21
-90.641738
31
0.0
0
LINE
8
FOOTPATH
10
-22.078735
20
-90.641738
30
0.0
11
-21.694305
21
-90.633833
31
0.0
0
LINE
8
FOOTPATH
10
-21.694305
20
-90.633833
30
0.0
11
-21.311371
21
-90.625425
31
0.0
0
LINE
8
FOOTPATH
10
-21.311371
20
-90.625425
30
0.0
11
-20.930004
21
-90.616502
31
0.0
0
LINE
8
FOOTPATH
10
-20.930004
20
-90.616502
30
0.0
11
-20.550283
21
-90.607051
31
0.0
0
LINE
8
FOOTPATH
10
-20.550283
20
-90.607051
30
0.0
11
-20.172284
21
-90.597061
31
0.0
0
LINE
8
FOOTPATH
10
-20.172284
20
-90.597061
30
0.0
11
-19.796090
21
-90.586520
31
0.0
0
LINE
8
FOOTPATH
10
-19.796090
20
-90.586520
30
0.0
11
-19.421782
21
-90.575418
31
0.0
0
LINE
8
FOOTPATH
10
-19.421782
20
-90.575418
30
0.0
11
-19.049447
21
-90.563743
31
0.0
0
LINE
8
FOOTPATH
10
-19.049447
20
-90.563743
30
0.0
11
-18.679172
21
-90.551488
31
0.0
0
LINE
8
FOOTPATH
10
-18.679172
20
-90.551488
30
0.0
11
-18.311046
21
-90.538641
31
0.0
0
LINE
8
FOOTPATH
10
-18.311046
20
-90.538641
30
0.0
11
-17.945164
21
-90.525196
31
0.0
0
LINE
8
FOOTPATH
10
-17.945164
20
-90.525196
30
0.0
11
-17.581619
21
-90.511145
31
0.0
0
LINE
8
FOOTPATH
10
-17.581619
20
-90.511145
30
0.0
11
-17.220509
21
-90.496479
31
0.0
0
LINE
8
FOOTPATH
10
-17.220509
20
-90.496479
30
0.0
11
-16.861935
21
-90.481194
31
0.0
0
LINE
8
FOOTPATH
10
-16.861935
20
-90.481194
30
0.0
11
-16.505999
21
-90.465282
31
0.0
0
LINE
8
FOOTPATH
10
-16.505999
20
-90.465282
30
0.0
11
-16.152808
21
-90.448740
31
0.0
0
LINE
8
FOOTPATH
10
-16.152808
20
-90.448740
30
0.0
11
-15.802468
21
-90.431563
31
0.0
0
LINE
8
FOOTPATH
10
-15.802468
20
-90.431563
30
0.0
11
-15.455091
21
-90.413748
31
0.0
0
LINE
8
FOOTPATH
10
-15.455091
20
-90.413748
30
0.0
11
-15.110790
21
-90.395292
31
0.0
0
LINE
8
FOOTPATH
10
-15.110790
20
-90.395292
30
0.0
11
-14.769683
21
-90.376194
31
0.0
0
LINE
8
FOOTPATH
10
-14.769683
20
-90.376194
30
0.0
11
-14.431887
21
-90.356452
31
0.0
0
LINE
8
FOOTPATH
10
-14.431887
20
-90.356452
30
0.0
11
-14.097527
21
-90.336066
31
0.0
0
LINE
8
FOOTPATH
10
-14.097527
20
-90.336066
30
0.0
11
-13.766726
21
-90.315038
31
0.0
0
LINE
8
FOOTPATH
10
-13.766726
20
-90.315038
30
0.0
11
-13.439613
21
-90.293367
31
0.0
0
LINE
8
FOOTPATH
10
-13.439613
20
-90.293367
30
0.0
11
-13.116318
21
-90.271057
31
0.0
0
LINE
8
FOOTPATH
10
-13.116318
20
-90.271057
30
0.0
11
-12.796977
21
-90.248110
31
0.0
0
LINE
8
FOOTPATH
10
-12.796977
20
-90.248110
30
0.0
11
-12.481727
21
-90.224531
31
0.0
0
LINE
8
FOOTPATH
10
-12.481727
20
-90.224531
30
0.0
11
-12.170707
21
-90.200324
31
0.0
0
LINE
8
FOOTPATH
10
-12.170707
20
-90.200324
30
0.0
11
-11.864063
21
-90.175493
31
0.0
0
LINE
8
FOOTPATH
10
-11.864063
20
-90.175493
30
0.0
11
-11.561939
21
-90.150046
31
0.0
0
LINE
8
FOOTPATH
10
-11.561939
20
-90.150046
30
0.0
11
-11.264488
21
-90.123989
31
0.0
0
LINE
8
FOOTPATH
10
-11.264488
20
-90.123989
30
0.0
11
-10.971863
21
-90.097329
31
0.0
0
LINE
8
FOOTPATH
10
-10.971863
20
-90.097329
30
0.0
11
-10.684219
21
-90.070073
31
0.0
0
LINE
8
FOOTPATH
10
-10.684219
20
-90.070073
30
0.0
11
-10.401719
21
-90.042232
31
0.0
0
LINE
8
FOOTPATH
10
-10.401719
20
-90.042232
30
0.0
11
-10.124525
21
-90.013813
31
0.0
0
LINE
8
FOOTPATH
10
-10.124525
20
-90.013813
30
0.0
11
-9.852805
21
-89.984826
31
0.0
0
LINE
8
FOOTPATH
10
-9.852805
20
-89.984826
30
0.0
11
-9.586730
21
-89.955281
31
0.0
0
LINE
8
FOOTPATH
10
-9.586730
20
-89.955281
30
0.0
11
-9.326474
21
-89.925187
31
0.0
0
LINE
8
FOOTPATH
10
-9.326474
20
-89.925187
30
0.0
11
-9.072217
21
-89.894557
31
0.0
0
LINE
8
FOOTPATH
10
-9.072217
20
-89.894557
30
0.0
11
-8.824139
21
-89.863399
31
0.0
0
LINE
8
FOOTPATH
10
-8.824139
20
-89.863399
30
0.0
11
-8.582426
21
-89.831724
31
0.0
0
LINE
8
FOOTPATH
10
-8.582426
20
-89.831724
30
0.0
11
-8.347268
21
-89.799544
31
0.0
0
LINE
8
FOOTPATH
10
-8.347268
20
-89.799544
30
0.0
11
-8.118857
21
-89.766868
31
0.0
0
LINE
8
FOOTPATH
10
-8.118857
20
-89.766868
30
0.0
11
-7.897392
21
-89.733707
31
0.0
0
LINE
8
FOOTPATH
10
-7.897392
20
-89.733707
30
0.0
11
-7.683073
21
-89.700070
31
0.0
0
LINE
8
FOOTPATH
10
-7.683073
20
-89.700070
30
0.0
11
-7.476105
21
-89.665966
31
0.0
0
LINE
8
FOOTPATH
10
-7.476105
20
-89.665966
30
0.0
11
-7.276696
21
-89.631404
31
0.0
0
LINE
8
FOOTPATH
10
-7.276696
20
-89.631404
30
0.0
11
-7.085061
21
-89.596392
31
0.0
0
LINE
8
FOOTPATH
10
-7.085061
20
-89.596392
30
0.0
11
-6.901415
21
-89.560935
31
0.0
0
LINE
8
FOOTPATH
10
-6.901415
20
-89.560935
30
0.0
11
-6.725979
21
-89.525039
31
0.0
0
LINE
8
FOOTPATH
10
-6.725979
20
-89.525039
30
0.0
11
-6.558979
21
-89.488709
31
0.0
0
LINE
8
FOOTPATH
10
-6.558979
20
-89.488709
30
0.0
11
-6.400642
21
-89.451945
31
0.0
0
LINE
8
FOOTPATH
10
-6.400642
20
-89.451945
30
0.0
11
-6.251203
21
-89.414749
31
0.0
0
LINE
8
FOOTPATH
10
-6.251203
20
-89.414749
30
0.0
11
-6.110898
21
-89.377119
31
0.0
0
LINE
8
FOOTPATH
10
-6.110898
20
-89.377119
30
0.0
11
-5.979968
21
-89.339050
31
0.0
0
LINE
8
FOOTPATH
10
-5.979968
20
-89.339050
30
0.0
11
-5.858658
21
-89.300536
31
0.0
0
LINE
8
FOOTPATH
10
-5.858658
20
-89.300536
30
0.0
11
-5.747216
21
-89.261567
31
0.0
0
LINE
8
FOOTPATH
10
-5.747216
20
-89.261567
30
0.0
11
-5.645894
21
-89.222130
31
0.0
0
LINE
8
FOOTPATH
10
-5.645894
20
-89.222130
30
0.0
11
-5.554950
21
-89.182208
31
0.0
0
LINE
8
FOOTPATH
10
-5.554950
20
-89.182208
30
0.0
11
-5.474642
21
-89.141781
31
0.0
0
LINE
8
FOOTPATH
10
-5.474642
20
-89.141781
30
0.0
11
-5.405235
21
-89.100824
31
0.0
0
LINE
8
FOOTPATH
10
-5.405235
20
-89.100824
30
0.0
11
-5.346994
21
-89.059308
31
0.0
0
LINE
8
FOOTPATH
10
-5.346994
20
-89.059308
30
0.0
11
-5.300191
21
-89.017198
31
0.0
0
LINE
8
FOOTPATH
10
-5.300191
20
-89.017198
30
0.0
11
-5.265096
21
-88.974455
31
0.0
0
LINE
8
FOOTPATH
10
-5.265096
20
-88.974455
30
0.0
11
-5.241987
21
-88.931032
31
0.0
0
LINE
8
FOOTPATH
10
-5.241987
20
-88.931032
30
0.0
11
-5.231141
21
-88.886877
31
0.0
0
LINE
8
FOOTPATH
10
-5.231141
20
-88.886877
30
0.0
11
-5.232839
21
-88.841932
31
0.0
0
LINE
8
FOOTPATH
10
-5.232839
20
-88.841932
30
0.0
11
-5.247363
21
-88.796130
31
0.0
0
LINE
8
FOOTPATH
10
-5.247363
20
-88.796130
30
0.0
11
-5.274998
21
-88.749396
31
0.0
0
LINE
8
FOOTPATH
10
-5.274998
20
-88.749396
30
0.0
11
-5.316027
21
-88.701649
31
0.0
0
LINE
8
FOOTPATH
10
-5.316027
20
-88.701649
30
0.0
11
-5.370736
21
-88.652796
31
0.0
0
LINE
8
FOOTPATH
10
-5.370736
20
-88.652796
30
0.0
11
-5.439412
21
-88.602737
31
0.0
0
LINE
8
FOOTPATH
10
-5.439412
20
-88.602737
30
0.0
11
-5.522339
21
-88.551361
31
0.0
0
LINE
8
FOOTPATH
10
-5.522339
20
-88.551361
30
0.0
11
-5.619801
21
-88.498545
31
0.0
0
LINE
8
FOOTPATH
10
-5.619801
20
-88.498545
30
0.0
11
-5.732082
21
-88.444157
31
0.0
0
LINE
8
FOOTPATH
10
-5.732082
20
-88.444157
30
0.0
11
-5.859459
21
-88.388052
31
0.0
0
LINE
8
FOOTPATH
10
-5.859459
20
-88.388052
30
0.0
11
-6.002210
21
-88.330072
31
0.0
0
LINE
8
FOOTPATH
10
-6.002210
20
-88.330072
30
0.0
11
-6.160607
21
-88.270046
31
0.0
0
LINE
8
FOOTPATH
10
-6.160607
20
-88.270046
30
0.0
11
-6.334914
21
-88.207790
31
0.0
0
LINE
8
FOOTPATH
10
-6.334914
20
-88.207790
30
0.0
11
-6.525391
21
-88.143104
31
0.0
0
LINE
8
FOOTPATH
10
-6.525391
20
-88.143104
30
0.0
11
-6.732291
21
-88.075776
31
0.0
0
LINE
8
FOOTPATH
10
-6.732291
20
-88.075776
30
0.0
11
-6.955854
21
-88.005574
31
0.0
0
LINE
8
FOOTPATH
10
-6.955854
20
-88.005574
30
0.0
11
-7.196312
21
-87.932253
31
0.0
0
LINE
8
FOOTPATH
10
-7.196312
20
-87.932253
30
0.0
11
-7.453883
21
-87.855550
31
0.0
0
LINE
8
FOOTPATH
10
-7.453883
20
-87.855550
30
0.0
11
-7.728772
21
-87.775185
31
0.0
0
LINE
8
FOOTPATH
10
-7.728772
20
-87.775185
30
0.0
11
-8.021168
21
-87.690860
31
0.0
0
LINE
8
FOOTPATH
10
-8.021168
20
-87.690860
30
0.0
11
-8.331239
21
-87.602259
31
0.0
0
LINE
8
FOOTPATH
10
-8.331239
20
-87.602259
30
0.0
11
-8.659135
21
-87.509047
31
0.0
0
LINE
8
FOOTPATH
10
-8.659135
20
-87.509047
30
0.0
11
-9.004983
21
-87.410872
31
0.0
0
LINE
8
FOOTPATH
10
-9.004983
20
-87.410872
30
0.0
11
-9.368884
21
-87.307359
31
0.0
0
LINE
8
FOOTPATH
10
-9.368884
20
-87.307359
30
0.0
11
-9.750911
21
-87.198119
31
0.0
0
LINE
8
FOOTPATH
10
-9.750911
20
-87.198119
30
0.0
11
-10.151105
21
-87.082741
31
0.0
0
LINE
8
FOOTPATH
10
-10.151105
20
-87.082741
30
0.0
11
-10.569474
21
-86.960796
31
0.0
0
LINE
8
FOOTPATH
10
-10.569474
20
-86.960796
30
0.0
11
-11.005989
21
-86.831838
31
0.0
0
LINE
8
FOOTPATH
10
-11.005989
20
-86.831838
30
0.0
11
-11.460579
21
-86.695400
31
0.0
0
LINE
8
FOOTPATH
10
-11.460579
20
-86.695400
30
0.0
11
-11.933129
21
-86.551002
31
0.0
0
LINE
8
FOOTPATH
10
-11.933129
20
-86.551002
30
0.0
11
-12.423476
21
-86.398147
31
0.0
0
LINE
8
FOOTPATH
10
-12.423476
20
-86.398147
30
0.0
11
-12.931403
21
-86.236323
31
0.0
0
LINE
8
FOOTPATH
10
-12.931403
20
-86.236323
30
0.0
11
-13.456641
21
-86.065006
31
0.0
0
LINE
8
FOOTPATH
10
-13.456641
20
-86.065006
30
0.0
11
-13.998856
21
-85.883661
31
0.0
0
LINE
8
FOOTPATH
10
-13.998856
20
-85.883661
30
0.0
11
-14.557651
21
-85.691744
31
0.0
0
LINE
8
FOOTPATH
10
-14.557651
20
-85.691744
30
0.0
11
-15.132562
21
-85.488708
31
0.0
0
LINE
8
FOOTPATH
10
-15.132562
20
-85.488708
30
0.0
11
-15.723048
21
-85.274000
31
0.0
0
LINE
8
FOOTPATH
10
-15.723048
20
-85.274000
30
0.0
11
-16.328494
21
-85.047071
31
0.0
0
LINE
8
FOOTPATH
10
-16.328494
20
-85.047071
30
0.0
11
-16.948202
21
-84.807379
31
0.0
0
LINE
8
FOOTPATH
10
-16.948202
20
-84.807379
30
0.0
11
-17.581387
21
-84.554389
31
0.0
0
LINE
8
FOOTPATH
10
-17.581387
20
-84.554389
30
0.0
11
-18.227176
21
-84.287587
31
0.0
0
LINE
8
FOOTPATH
10
-18.227176
20
-84.287587
30
0.0
11
-18.884605
21
-84.006477
31
0.0
0
LINE
8
FOOTPATH
10
-18.884605
20
-84.006477
30
0.0
11
-19.552614
21
-83.710597
31
0.0
0
LINE
8
FOOTPATH
10
-19.552614
20
-83.710597
30
0.0
11
-20.230045
21
-83.399522
31
0.0
0
LINE
8
FOOTPATH
10
-20.230045
20
-83.399522
30
0.0
11
-20.915647
21
-83.072874
31
0.0
0
LINE
8
FOOTPATH
10
-20.915647
20
-83.072874
30
0.0
11
-21.608068
21
-82.730334
31
0.0
0
LINE
8
FOOTPATH
10
-21.608068
20
-82.730334
30
0.0
11
-22.305867
21
-82.371652
31
0.0
0
LINE
8
FOOTPATH
10
-22.305867
20
-82.371652
30
0.0
11
-23.007510
21
-81.996663
31
0.0
0
LINE
8
FOOTPATH
10
-23.007510
20
-81.996663
30
0.0
11
-23.711383
21
-81.605301
31
0.0
0
LINE
8
FOOTPATH
10
-23.711383
20
-81.605301
30
0.0
11
-24.415801
21
-81.197614
31
0.0
0
LINE
8
FOOTPATH
10
-24.415801
20
-81.197614
30
0.0
11
-25.119021
21
-80.773790
31
0.0
0
LINE
8
FOOTPATH
10
-25.119021
20
-80.773790
30
0.0
11
-25.819263
21
-80.334176
31
0.0
0
LINE
8
FOOTPATH
10
-25.819263
20
-80.334176
30
0.0
11
-26.514737
21
-79.879303
31
0.0
0
LINE
8
FOOTPATH
10
-26.514737
20
-79.879303
30
0.0
11
-27.203669
21
-79.409923
31
0.0
0
LINE
8
FOOTPATH
10
-27.203669
20
-79.409923
30
0.0
11
-27.884344
21
-78.927036
31
0.0
0
LINE
8
FOOTPATH
10
-27.884344
20
-78.927036
30
0.0
11
-28.555157
21
-78.431933
31
0.0
0
LINE
8
FOOTPATH
10
-28.555157
20
-78.431933
30
0.0
11
-29.214664
21
-77.926240
31
0.0
0
LINE
8
FOOTPATH
10
-29.214664
20
-77.926240
30
0.0
11
-29.861652
21
-77.411968
31
0.0
0
LINE
8
FOOTPATH
10
-29.861652
20
-77.411968
30
0.0
11
-30.495218
21
-76.891561
31
0.0
0
LINE
8
FOOTPATH
10
-30.495218
20
-76.891561
30
0.0
11
-31.114849
21
-76.367953
31
0.0
0
LINE
8
FOOTPATH
10
-31.114849
20
-76.367953
30
0.0
11
-31.720517
21
-75.844620
31
0.0
0
LINE
8
FOOTPATH
10
-31.720517
20
-75.844620
30
0.0
11
-32.312764
21
-75.325624
31
0.0
0
LINE
8
FOOTPATH
10
-32.312764
20
-75.325624
30
0.0
11
-32.892794
21
-74.815642
31
0.0
0
LINE
8
FOOTPATH
10
-32.892794
20
-74.815642
30
0.0
11
-33.462537
21
-74.319974
31
0.0
0
LINE
8
FOOTPATH
10
-33.462537
20
-74.319974
30
0.0
11
-34.024693
21
-73.844513
31
0.0
0
LINE
8
FOOTPATH
10
-34.024693
20
-73.844513
30
0.0
11
-34.582736
21
-73.395660
31
0.0
0
LINE
8
FOOTPATH
10
-34.582736
20
-73.395660
30
0.0
11
-35.140867
21
-72.980186
31
0.0
0
LINE
8
FOOTPATH
10
-35.140867
20
-72.980186
30
0.0
11
-35.703895
21
-72.605020
31
0.0
0
LINE
8
FOOTPATH
10
-35.703895
20
-72.605020
30
0.0
11
-36.277062
21
-72.276961
31
0.0
0
LINE
8
FOOTPATH
10
-36.277062
20
-72.276961
30
0.0
11
-36.865793
21
-72.002340
31
0.0
0
LINE
8
FOOTPATH
10
-36.865793
20
-72.002340
30
0.0
11
-37.475392
21
-71.786639
31
0.0
0
LINE
8
FOOTPATH
10
-37.475392
20
-71.786639
30
0.0
11
-38.110716
21
-71.634121
31
0.0
0
LINE
8
FOOTPATH
10
-38.110716
20
-71.634121
30
0.0
11
-38.775835
21
-71.547500
31
0.0
0
LINE
8
FOOTPATH
10
-38.775835
20
-71.547500
30
0.0
11
-39.473749
21
-71.527719
31
0.0
0
LINE
8
FOOTPATH
10
-39.473749
20
-71.527719
30
0.0
11
-40.206164
21
-71.573860
31
0.0
0
LINE
8
FOOTPATH
10
-40.206164
20
-71.573860
30
0.0
11
-40.973378
21
-71.683203
31
0.0
0
LINE
8
FOOTPATH
10
-40.973378
20
-71.683203
30
0.0
11
-41.774281
21
-71.851437
31
0.0
0
LINE
8
FOOTPATH
10
-41.774281
20
-71.851437
30
0.0
11
-42.606463
21
-72.072989
31
0.0
0
LINE
8
FOOTPATH
10
-42.606463
20
-72.072989
30
0.0
11
-43.466423
21
-72.341420
31
0.0
0
LINE
8
FOOTPATH
10
-43.466423
20
-72.341420
30
0.0
11
-44.349834
21
-72.649840
31
0.0
0
LINE
8
FOOTPATH
10
-44.349834
20
-72.649840
30
0.0
11
-45.251846
21
-72.991292
31
0.0
0
LINE
8
FOOTPATH
10
-45.251846
20
-72.991292
30
0.0
11
-46.167371
21
-73.359074
31
0.0
0
LINE
8
FOOTPATH
10
-46.167371
20
-73.359074
30
0.0
11
-47.091347
21
-73.746976
31
0.0
0
LINE
8
FOOTPATH
10
-47.091347
20
-73.746976
30
0.0
11
-48.018945
21
-74.149427
31
0.0
0
LINE
8
FOOTPATH
10
-48.018945
20
-74.149427
30
0.0
11
-48.945716
21
-74.561572
31
0.0
0
LINE
8
FOOTPATH
10
-48.945716
20
-74.561572
30
0.0
11
-49.867693
21
-74.979279
31
0.0
0
LINE
8
FOOTPATH
10
-49.867693
20
-74.979279
30
0.0
11
-50.781425
21
-75.399104
31
0.0
0
LINE
8
FOOTPATH
10
-50.781425
20
-75.399104
30
0.0
11
-51.683989
21
-75.818232
31
0.0
0
LINE
8
FOOTPATH
10
-51.683989
20
-75.818232
30
0.0
11
-52.572961
21
-76.234397
31
0.0
0
LINE
8
FOOTPATH
10
-52.572961
20
-76.234397
30
0.0
11
-53.446375
21
-76.645803
31
0.0
0
LINE
8
FOOTPATH
10
-53.446375
20
-76.645803
30
0.0
11
-54.302667
21
-77.051050
31
0.0
0
LINE
8
FOOTPATH
10
-54.302667
20
-77.051050
30
0.0
11
-55.140621
21
-77.449057
31
0.0
0
LINE
8
FOOTPATH
10
-55.140621
20
-77.449057
30
0.0
11
-55.959312
21
-77.839009
31
0.0
0
LINE
8
FOOTPATH
10
-55.959312
20
-77.839009
30
0.0
11
-56.758056
21
-78.220303
31
0.0
0
LINE
8
FOOTPATH
10
-56.758056
20
-78.220303
30
0.0
11
-57.536362
21
-78.592505
31
0.0
0
LINE
8
FOOTPATH
10
-57.536362
20
-78.592505
30
0.0
11
-58.293896
21
-78.955317
31
0.0
0
LINE
8
FOOTPATH
10
-58.293896
20
-78.955317
30
0.0
11
-59.030445
21
-79.308548
31
0.0
0
LINE
8
FOOTPATH
10
-59.030445
20
-79.308548
30
0.0
11
-59.745891
21
-79.652096
31
0.0
0
LINE
8
FOOTPATH
10
-59.745891
20
-79.652096
30
0.0
11
-60.440190
21
-79.985929
31
0.0
0
LINE
8
FOOTPATH
10
-60.440190
20
-79.985929
30
0.0
11
-61.113356
21
-80.310071
31
0.0
0
LINE
8
FOOTPATH
10
-61.113356
20
-80.310071
30
0.0
11
-61.765445
21
-80.624589
31
0.0
0
LINE
8
FOOTPATH
10
-61.765445
20
-80.624589
30
0.0
11
-62.396545
21
-80.929593
31
0.0
0
LINE
8
FOOTPATH
10
-62.396545
20
-80.929593
30
0.0
11
-63.006770
21
-81.225220
31
0.0
0
LINE
8
FOOTPATH
10
-63.006770
20
-81.225220
30
0.0
11
-63.596256
21
-81.511632
31
0.0
0
LINE
8
FOOTPATH
10
-63.596256
20
-81.511632
30
0.0
11
-64.165152
21
-81.789013
31
0.0
0
LINE
8
FOOTPATH
10
-64.165152
20
-81.789013
30
0.0
11
-64.713620
21
-82.057564
31
0.0
0
LINE
8
FOOTPATH
10
-64.713620
20
-82.057564
30
0.0
11
-65.241834
21
-82.317499
31
0.0
0
LINE
8
FOOTPATH
10
-65.241834
20
-82.317499
30
0.0
11
-65.749977
21
-82.569044
31
0.0
0
LINE
8
FOOTPATH
10
-65.749977
20
-82.569044
30
0.0
11
-66.238238
21
-82.812432
31
0.0
0
LINE
8
FOOTPATH
10
-66.238238
20
-82.812432
30
0.0
11
-66.706816
21
-83.047903
31
0.0
0
LINE
8
FOOTPATH
10
-66.706816
20
-83.047903
30
0.0
11
-67.155918
21
-83.275702
31
0.0
0
LINE
8
FOOTPATH
10
-67.155918
20
-83.275702
30
0.0
11
-67.585756
21
-83.496076
31
0.0
0
LINE
8
FOOTPATH
10
-67.585756
20
-83.496076
30
0.0
11
-67.996550
21
-83.709274
31
0.0
0
LINE
8
FOOTPATH
10
-67.996550
20
-83.709274
30
0.0
11
-68.388524
21
-83.915543
31
0.0
0
LINE
8
FOOTPATH
10
-68.388524
20
-83.915543
30
0.0
11
-68.761912
21
-84.115132
31
0.0
0
LINE
8
FOOTPATH
10
-68.761912
20
-84.115132
30
0.0
11
-69.116952
21
-84.308285
31
0.0
0
LINE
8
FOOTPATH
10
-69.116952
20
-84.308285
30
0.0
11
-69.453887
21
-84.495243
31
0.0
0
LINE
8
FOOTPATH
10
-69.453887
20
-84.495243
30
0.0
11
-69.772967
21
-84.676243
31
0.0
0
LINE
8
FOOTPATH
10
-69.772967
20
-84.676243
30
0.0
11
-70.074447
21
-84.851518
31
0.0
0
LINE
8
FOOTPATH
10
-70.074447
20
-84.851518
30
0.0
11
-70.358587
21
-85.021295
31
0.0
0
LINE
8
FOOTPATH
10
-70.358587
20
-85.021295
30
0.0
11
-70.625649
21
-85.185794
31
0.0
0
LINE
8
FOOTPATH
10
-70.625649
20
-85.185794
30
0.0
11
-70.875902
21
-85.345230
31
0.0
0
LINE
8
FOOTPATH
10
-70.875902
20
-85.345230
30
0.0
11
-71.109618
21
-85.499809
31
0.0
0
LINE
8
FOOTPATH
10
-71.109618
20
-85.499809
30
0.0
11
-71.327070
21
-85.649732
31
0.0
0
LINE
8
FOOTPATH
10
-71.327070
20
-85.649732
30
0.0
11
-71.528536
21
-85.795191
31
0.0
0
LINE
8
FOOTPATH
10
-71.528536
20
-85.795191
30
0.0
11
-71.714296
21
-85.936373
31
0.0
0
LINE
8
FOOTPATH
10
-71.714296
20
-85.936373
30
0.0
11
-71.884630
21
-86.073454
31
0.0
0
LINE
8
FOOTPATH
10
-71.884630
20
-86.073454
30
0.0
11
-72.039821
21
-86.206605
31
0.0
0
LINE
8
FOOTPATH
10
-72.039821
20
-86.206605
30
0.0
11
-72.180152
21
-86.335988
31
0.0
0
LINE
8
FOOTPATH
10
-72.180152
20
-86.335988
30
0.0
11
-72.305906
21
-86.461759
31
0.0
0
LINE
8
FOOTPATH
10
-72.305906
20
-86.461759
30
0.0
11
-72.417368
21
-86.584065
31
0.0
0
LINE
8
FOOTPATH
10
-72.417368
20
-86.584065
30
0.0
11
-72.514822
21
-86.703046
31
0.0
0
LINE
8
FOOTPATH
10
-72.514822
20
-86.703046
30
0.0
11
-72.598549
21
-86.818835
31
0.0
0
LINE
8
FOOTPATH
10
-72.598549
20
-86.818835
30
0.0
11
-72.668832
21
-86.931558
31
0.0
0
LINE
8
FOOTPATH
10
-72.668832
20
-86.931558
30
0.0
11
-72.725951
21
-87.041334
31
0.0
0
LINE
8
FOOTPATH
10
-72.725951
20
-87.041334
30
0.0
11
-72.770184
21
-87.148277
31
0.0
0
LINE
8
FOOTPATH
10
-72.770184
20
-87.148277
30
0.0
11
-72.801809
21
-87.252492
31
0.0
0
LINE
8
FOOTPATH
10
-72.801809
20
-87.252492
30
0.0
11
-72.821100
21
-87.354080
31
0.0
0
LINE
8
FOOTPATH
10
-72.821100
20
-87.354080
30
0.0
11
-72.828328
21
-87.453134
31
0.0
0
LINE
8
FOOTPATH
10
-72.828328
20
-87.453134
30
0.0
11
-72.823764
21
-87.549744
31
0.0
0
LINE
8
FOOTPATH
10
-72.823764
20
-87.549744
30
0.0
11
-72.807674
21
-87.643992
31
0.0
0
LINE
8
FOOTPATH
10
-72.807674
20
-87.643992
30
0.0
11
-72.780320
21
-87.735958
31
0.0
0
LINE
8
FOOTPATH
10
-72.780320
20
-87.735958
30
0.0
11
-72.741964
21
-87.825714
31
0.0
0
LINE
8
FOOTPATH
10
-72.741964
20
-87.825714
30
0.0
11
-72.692863
21
-87.913328
31
0.0
0
LINE
8
FOOTPATH
10
-72.692863
20
-87.913328
30
0.0
11
-72.633269
21
-87.998865
31
0.0
0
LINE
8
FOOTPATH
10
-72.633269
20
-87.998865
30
0.0
11
-72.563432
21
-88.082386
31
0.0
0
LINE
8
FOOTPATH
10
-72.563432
20
-88.082386
30
0.0
11
-72.483600
21
-88.163946
31
0.0
0
LINE
8
FOOTPATH
10
-72.483600
20
-88.163946
30
0.0
11
-72.394013
21
-88.243598
31
0.0
0
LINE
8
FOOTPATH
10
-72.394013
20
-88.243598
30
0.0
11
-72.294911
21
-88.321392
31
0.0
0
LINE
8
FOOTPATH
10
-72.294911
20
-88.321392
30
0.0
11
-72.186529
21
-88.397373
31
0.0
0
LINE
8
FOOTPATH
10
-72.186529
20
-88.397373
30
0.0
11
-72.069096
21
-88.471584
31
0.0
0
LINE
8
FOOTPATH
10
-72.069096
20
-88.471584
30
0.0
11
-71.942841
21
-88.544065
31
0.0
0
LINE
8
FOOTPATH
10
-71.942841
20
-88.544065
30
0.0
11
-71.807985
21
-88.614855
31
0.0
0
LINE
8
FOOTPATH
10
-71.807985
20
-88.614855
30
0.0
11
-71.664749
21
-88.683989
31
0.0
0
LINE
8
FOOTPATH
10
-71.664749
20
-88.683989
30
0.0
11
-71.513345
21
-88.751499
31
0.0
0
LINE
8
FOOTPATH
10
-71.513345
20
-88.751499
30
0.0
11
-71.353986
21
-88.817417
31
0.0
0
LINE
8
FOOTPATH
10
-71.353986
20
-88.817417
30
0.0
11
-71.186879
21
-88.881772
31
0.0
0
LINE
8
FOOTPATH
10
-71.186879
20
-88.881772
30
0.0
11
-71.012225
21
-88.944591
31
0.0
0
LINE
8
FOOTPATH
10
-71.012225
20
-88.944591
30
0.0
11
-70.830225
21
-89.005901
31
0.0
0
LINE
8
FOOTPATH
10
-70.830225
20
-89.005901
30
0.0
11
-70.641072
21
-89.065725
31
0.0
0
LINE
8
FOOTPATH
10
-70.641072
20
-89.065725
30
0.0
11
-70.444959
21
-89.124089
31
0.0
0
LINE
8
FOOTPATH
10
-70.444959
20
-89.124089
30
0.0
11
-70.242072
21
-89.181013
31
0.0
0
LINE
8
FOOTPATH
10
-70.242072
20
-89.181013
30
0.0
11
-70.032594
21
-89.236518
31
0.0
0
LINE
8
FOOTPATH
10
-70.032594
20
-89.236518
30
0.0
11
-69.816706
21
-89.290626
31
0.0
0
LINE
8
FOOTPATH
10
-69.816706
20
-89.290626
30
0.0
11
-69.594582
21
-89.343356
31
0.0
0
LINE
8
FOOTPATH
10
-69.594582
20
-89.343356
30
0.0
11
-69.366396
21
-89.394726
31
0.0
0
LINE
8
FOOTPATH
10
-69.366396
20
-89.394726
30
0.0
11
-69.132314
21
-89.444755
31
0.0
0
LINE
8
FOOTPATH
10
-69.132314
20
-89.444755
30
0.0
11
-68.892503
21
-89.493461
31
0.0
0
LINE
8
FOOTPATH
10
-68.892503
20
-89.493461
30
0.0
11
-68.647122
21
-89.540861
31
0.0
0
LINE
8
FOOTPATH
10
-68.647122
20
-89.540861
30
0.0
11
-68.396330
21
-89.586971
31
0.0
0
LINE
8
FOOTPATH
10
-68.396330
20
-89.586971
30
0.0
11
-68.140280
21
-89.631809
31
0.0
0
LINE
8
FOOTPATH
10
-68.140280
20
-89.631809
30
0.0
11
-67.879123
21
-89.675391
31
0.0
0
LINE
8
FOOTPATH
10
-67.879123
20
-89.675391
30
0.0
11
-67.613006
21
-89.717734
31
0.0
0
LINE
8
FOOTPATH
10
-67.613006
20
-89.717734
30
0.0
11
-67.342074
21
-89.758854
31
0.0
0
LINE
8
FOOTPATH
10
-67.342074
20
-89.758854
30
0.0
11
-67.066465
21
-89.798766
31
0.0
0
LINE
8
FOOTPATH
10
-67.066465
20
-89.798766
30
0.0
11
-66.786319
21
-89.837488
31
0.0
0
LINE
8
FOOTPATH
10
-66.786319
20
-89.837488
30
0.0
11
-66.501768
21
-89.875036
31
0.0
0
LINE
8
FOOTPATH
10
-66.501768
20
-89.875036
30
0.0
11
-66.212943
21
-89.911425
31
0.0
0
LINE
8
FOOTPATH
10
-66.212943
20
-89.911425
30
0.0
11
-65.919973
21
-89.946672
31
0.0
0
LINE
8
FOOTPATH
10
-65.919973
20
-89.946672
30
0.0
11
-65.622982
21
-89.980795
31
0.0
0
LINE
8
FOOTPATH
10
-65.622982
20
-89.980795
30
0.0
11
-65.322091
21
-90.013809
31
0.0
0
LINE
8
FOOTPATH
10
-65.322091
20
-90.013809
30
0.0
11
-65.017420
21
-90.045731
31
0.0
0
LINE
8
FOOTPATH
10
-65.017420
20
-90.045731
30
0.0
11
-64.709083
21
-90.076580
31
0.0
0
LINE
8
FOOTPATH
10
-64.709083
20
-90.076580
30
0.0
11
-64.397195
21
-90.106371
31
0.0
0
LINE
8
FOOTPATH
10
-64.397195
20
-90.106371
30
0.0
11
-64.081865
21
-90.135123
31
0.0
0
LINE
8
FOOTPATH
10
-64.081865
20
-90.135123
30
0.0
11
-63.763200
21
-90.162854
31
0.0
0
LINE
8
FOOTPATH
10
-63.763200
20
-90.162854
30
0.0
11
-63.441305
21
-90.189581
31
0.0
0
LINE
8
FOOTPATH
10
-63.441305
20
-90.189581
30
0.0
11
-63.116282
21
-90.215322
31
0.0
0
LINE
8
FOOTPATH
10
-63.116282
20
-90.215322
30
0.0
11
-62.788231
21
-90.240097
31
0.0
0
LINE
8
FOOTPATH
10
-62.788231
20
-90.240097
30
0.0
11
-62.457247
21
-90.263925
31
0.0
0
LINE
8
FOOTPATH
10
-62.457247
20
-90.263925
30
0.0
11
-62.123425
21
-90.286823
31
0.0
0
LINE
8
FOOTPATH
10
-62.123425
20
-90.286823
30
0.0
11
-61.786857
21
-90.308812
31
0.0
0
LINE
8
FOOTPATH
10
-61.786857
20
-90.308812
30
0.0
11
-61.447632
21
-90.329911
31
0.0
0
LINE
8
FOOTPATH
10
-61.447632
20
-90.329911
30
0.0
11
-61.105836
21
-90.350140
31
0.0
0
LINE
8
FOOTPATH
10
-61.105836
20
-90.350140
30
0.0
11
-60.761554
21
-90.369518
31
0.0
0
LINE
8
FOOTPATH
10
-60.761554
20
-90.369518
30
0.0
11
-60.414868
21
-90.388066
31
0.0
0
LINE
8
FOOTPATH
10
-60.414868
20
-90.388066
30
0.0
11
-60.065858
21
-90.405805
31
0.0
0
LINE
8
FOOTPATH
10
-60.065858
20
-90.405805
30
0.0
11
-59.714602
21
-90.422754
31
0.0
0
LINE
8
FOOTPATH
10
-59.714602
20
-90.422754
30
0.0
11
-59.361174
21
-90.438934
31
0.0
0
LINE
8
FOOTPATH
10
-59.361174
20
-90.438934
30
0.0
11
-59.005648
21
-90.454366
31
0.0
0
LINE
8
FOOTPATH
10
-59.005648
20
-90.454366
30
0.0
11
-58.648095
21
-90.469072
31
0.0
0
LINE
8
FOOTPATH
10
-58.648095
20
-90.469072
30
0.0
11
-58.288584
21
-90.483071
31
0.0
0
LINE
8
FOOTPATH
10
-58.288584
20
-90.483071
30
0.0
11
-57.927182
21
-90.496386
31
0.0
0
LINE
8
FOOTPATH
10
-57.927182
20
-90.496386
30
0.0
11
-57.563954
21
-90.509037
31
0.0
0
LINE
8
FOOTPATH
10
-57.563954
20
-90.509037
30
0.0
11
-57.198962
21
-90.521046
31
0.0
0
LINE
8
FOOTPATH
10
-57.198962
20
-90.521046
30
0.0
11
-56.832269
21
-90.532433
31
0.0
0
LINE
8
FOOTPATH
10
-56.832269
20
-90.532433
30
0.0
11
-56.463933
21
-90.543220
31
0.0
0
LINE
8
FOOTPATH
10
-56.463933
20
-90.543220
30
0.0
11
-56.094012
21
-90.553428
31
0.0
0
LINE
8
FOOTPATH
10
-56.094012
20
-90.553428
30
0.0
11
-55.722560
21
-90.563078
31
0.0
0
LINE
8
FOOTPATH
10
-55.722560
20
-90.563078
30
0.0
11
-55.349633
21
-90.572192
31
0.0
0
LINE
8
FOOTPATH
10
-55.349633
20
-90.572192
30
0.0
11
-54.975283
21
-90.580790
31
0.0
0
LINE
8
FOOTPATH
10
-54.975283
20
-90.580790
30
0.0
11
-54.599559
21
-90.588893
31
0.0
0
LINE
8
FOOTPATH
10
-54.599559
20
-90.588893
30
0.0
11
-54.222511
21
-90.596521
31
0.0
0
LINE
8
FOOTPATH
10
-54.222511
20
-90.596521
30
0.0
11
-53.844186
21
-90.603696
31
0.0
0
LINE
8
FOOTPATH
10
-53.844186
20
-90.603696
30
0.0
11
-53.464630
21
-90.610437
31
0.0
0
LINE
8
FOOTPATH
10
-53.464630
20
-90.610437
30
0.0
11
-53.083887
21
-90.616765
31
0.0
0
LINE
8
FOOTPATH
10
-53.083887
20
-90.616765
30
0.0
11
-52.702000
21
-90.622699
31
0.0
0
LINE
8
FOOTPATH
10
-52.702000
20
-90.622699
30
0.0
11
-52.319011
21
-90.628259
31
0.0
0
LINE
8
FOOTPATH
10
-52.319011
20
-90.628259
30
0.0
11
-51.934958
21
-90.633463
31
0.0
0
LINE
8
FOOTPATH
10
-51.934958
20
-90.633463
30
0.0
11
-51.549882
21
-90.638332
31
0.0
0
LINE
8
FOOTPATH
10
-51.549882
20
-90.638332
30
0.0
11
-51.163819
21
-90.642883
31
0.0
0
LINE
8
FOOTPATH
10
-51.163819
20
-90.642883
30
0.0
11
-50.776806
21
-90.647135
31
0.0
0
LINE
8
FOOTPATH
10
-50.776806
20
-90.647135
30
0.0
11
-50.388877
21
-90.651106
31
0.0
0
LINE
8
FOOTPATH
10
-50.388877
20
-90.651106
30
0.0
11
-50.000067
21
-90.654812
31
0.0
0
LINE
8
FOOTPATH
10
-50.000067
20
-90.654812
30
0.0
11
-49.610408
21
-90.658271
31
0.0
0
LINE
8
FOOTPATH
10
-49.610408
20
-90.658271
30
0.0
11
-49.219932
21
-90.661500
31
0.0
0
LINE
8
FOOTPATH
10
-49.219932
20
-90.661500
30
0.0
11
-48.828669
21
-90.664514
31
0.0
0
LINE
8
FOOTPATH
10
-48.828669
20
-90.664514
30
0.0
11
-48.436648
21
-90.667328
31
0.0
0
LINE
8
FOOTPATH
10
-48.436648
20
-90.667328
30
0.0
11
-48.043899
21
-90.669959
31
0.0
0
LINE
8
FOOTPATH
10
-48.043899
20
-90.669959
30
0.0
11
-47.650450
21
-90.672419
31
0.0
0
LINE
8
FOOTPATH
10
-47.650450
20
-90.672419
30
0.0
11
-47.256327
21
-90.674724
31
0.0
0
LINE
8
FOOTPATH
10
-47.256327
20
-90.674724
30
0.0
11
-46.861555
21
-90.676886
31
0.0
0
LINE
8
FOOTPATH
10
-46.861555
20
-90.676886
30
0.0
11
-46.466162
21
-90.678918
31
0.0
0
LINE
8
FOOTPATH
10
-46.466162
20
-90.678918
30
0.0
11
-46.070170
21
-90.680833
31
0.0
0
LINE
8
FOOTPATH
10
-46.070170
20
-90.680833
30
0.0
11
-45.673605
21
-90.682641
31
0.0
0
LINE
8
FOOTPATH
10
-45.673605
20
-90.682641
30
0.0
11
-45.276489
21
-90.684354
31
0.0
0
LINE
8
FOOTPATH
10
-45.276489
20
-90.684354
30
0.0
11
-44.878845
21
-90.685982
31
0.0
0
LINE
8
FOOTPATH
10
-44.878845
20
-90.685982
30
0.0
11
-44.480696
21
-90.687534
31
0.0
0
LINE
8
FOOTPATH
10
-44.480696
20
-90.687534
30
0.0
11
-44.082062
21
-90.689020
31
0.0
0
LINE
8
FOOTPATH
10
-44.082062
20
-90.689020
30
0.0
11
-43.682966
21
-90.690447
31
0.0
0
LINE
8
FOOTPATH
10
-43.682966
20
-90.690447
30
0.0
11
-43.283428
21
-90.691823
31
0.0
0
LINE
8
FOOTPATH
10
-43.283428
20
-90.691823
30
0.0
11
-42.883468
21
-90.693154
31
0.0
0
ENDSEC
0
EOF
